<?xml version="1.0" encoding="UTF-8" standalone="no"?>
<!-- Created with Inkscape (http://www.inkscape.org/) -->

<svg
   xmlns:dc="http://purl.org/dc/elements/1.1/"
   xmlns:cc="http://creativecommons.org/ns#"
   xmlns:rdf="http://www.w3.org/1999/02/22-rdf-syntax-ns#"
   xmlns:svg="http://www.w3.org/2000/svg"
   xmlns="http://www.w3.org/2000/svg"
   xmlns:sodipodi="http://sodipodi.sourceforge.net/DTD/sodipodi-0.dtd"
   xmlns:inkscape="http://www.inkscape.org/namespaces/inkscape"
   version="1.1"
   id="svg2"
   xml:space="preserve"
   width="768"
   height="480"
   viewBox="0 0 768 480"
   sodipodi:docname="rew_comparison_kc.svg"
   inkscape:version="0.92.5 (2060ec1f9f, 2020-04-08)"><metadata
     id="metadata8"><rdf:RDF><cc:Work
         rdf:about=""><dc:format>image/svg+xml</dc:format><dc:type
           rdf:resource="http://purl.org/dc/dcmitype/StillImage" /><dc:title></dc:title></cc:Work></rdf:RDF></metadata><defs
     id="defs6"><clipPath
       clipPathUnits="userSpaceOnUse"
       id="clipPath22"><path
         d="M 59.91761,96.664123 H 564.32523 V 332.4 H 59.91761 Z"
         id="path20"
         inkscape:connector-curvature="0" /></clipPath><clipPath
       clipPathUnits="userSpaceOnUse"
       id="clipPath38"><path
         d="M 59.91761,96.664123 H 564.32523 V 332.4 H 59.91761 Z"
         id="path36"
         inkscape:connector-curvature="0" /></clipPath><clipPath
       clipPathUnits="userSpaceOnUse"
       id="clipPath54"><path
         d="M 59.91761,96.664123 H 564.32523 V 332.4 H 59.91761 Z"
         id="path52"
         inkscape:connector-curvature="0" /></clipPath><clipPath
       clipPathUnits="userSpaceOnUse"
       id="clipPath70"><path
         d="M 59.91761,96.664123 H 564.32523 V 332.4 H 59.91761 Z"
         id="path68"
         inkscape:connector-curvature="0" /></clipPath><clipPath
       clipPathUnits="userSpaceOnUse"
       id="clipPath86"><path
         d="M 59.91761,96.664123 H 564.32523 V 332.4 H 59.91761 Z"
         id="path84"
         inkscape:connector-curvature="0" /></clipPath><clipPath
       clipPathUnits="userSpaceOnUse"
       id="clipPath102"><path
         d="M 59.91761,96.664123 H 564.32523 V 332.4 H 59.91761 Z"
         id="path100"
         inkscape:connector-curvature="0" /></clipPath><clipPath
       clipPathUnits="userSpaceOnUse"
       id="clipPath122"><path
         d="M 59.91761,96.664123 H 564.32523 V 332.4 H 59.91761 Z"
         id="path120"
         inkscape:connector-curvature="0" /></clipPath><clipPath
       clipPathUnits="userSpaceOnUse"
       id="clipPath138"><path
         d="M 59.91761,96.664123 H 564.32523 V 332.4 H 59.91761 Z"
         id="path136"
         inkscape:connector-curvature="0" /></clipPath><clipPath
       clipPathUnits="userSpaceOnUse"
       id="clipPath154"><path
         d="M 59.91761,96.664123 H 564.32523 V 332.4 H 59.91761 Z"
         id="path152"
         inkscape:connector-curvature="0" /></clipPath><clipPath
       clipPathUnits="userSpaceOnUse"
       id="clipPath170"><path
         d="M 59.91761,96.664123 H 564.32523 V 332.4 H 59.91761 Z"
         id="path168"
         inkscape:connector-curvature="0" /></clipPath><clipPath
       clipPathUnits="userSpaceOnUse"
       id="clipPath186"><path
         d="M 59.91761,96.664123 H 564.32523 V 332.4 H 59.91761 Z"
         id="path184"
         inkscape:connector-curvature="0" /></clipPath><clipPath
       clipPathUnits="userSpaceOnUse"
       id="clipPath206"><path
         d="M 59.91761,96.664123 H 564.32523 V 332.4 H 59.91761 Z"
         id="path204"
         inkscape:connector-curvature="0" /></clipPath><clipPath
       clipPathUnits="userSpaceOnUse"
       id="clipPath216"><path
         d="M 59.91761,96.664123 H 564.32523 V 332.4 H 59.91761 Z"
         id="path214"
         inkscape:connector-curvature="0" /></clipPath><clipPath
       clipPathUnits="userSpaceOnUse"
       id="clipPath226"><path
         d="M 59.91761,96.664123 H 564.32523 V 332.4 H 59.91761 Z"
         id="path224"
         inkscape:connector-curvature="0" /></clipPath><clipPath
       clipPathUnits="userSpaceOnUse"
       id="clipPath236"><path
         d="M 59.91761,96.664123 H 564.32523 V 332.4 H 59.91761 Z"
         id="path234"
         inkscape:connector-curvature="0" /></clipPath><clipPath
       clipPathUnits="userSpaceOnUse"
       id="clipPath246"><path
         d="M 59.91761,96.664123 H 564.32523 V 332.4 H 59.91761 Z"
         id="path244"
         inkscape:connector-curvature="0" /></clipPath><clipPath
       clipPathUnits="userSpaceOnUse"
       id="clipPath256"><path
         d="M 59.91761,96.664123 H 564.32523 V 332.4 H 59.91761 Z"
         id="path254"
         inkscape:connector-curvature="0" /></clipPath></defs><sodipodi:namedview
     pagecolor="#ffffff"
     bordercolor="#666666"
     borderopacity="1"
     objecttolerance="10"
     gridtolerance="10"
     guidetolerance="10"
     inkscape:pageopacity="0"
     inkscape:pageshadow="2"
     inkscape:window-width="1862"
     inkscape:window-height="1136"
     id="namedview4"
     showgrid="false"
     inkscape:zoom="0.49166667"
     inkscape:cx="384"
     inkscape:cy="240"
     inkscape:window-x="1978"
     inkscape:window-y="27"
     inkscape:window-maximized="1"
     inkscape:current-layer="g10" /><g
     id="g10"
     inkscape:groupmode="layer"
     inkscape:label="rew_comparison_kc"
     transform="matrix(1.3333333,0,0,-1.3333333,0,480)"><path
       d="M 0,0 H 576 V 360 H 0 Z"
       style="fill:#ffffff;fill-opacity:1;fill-rule:nonzero;stroke:none"
       id="path12"
       inkscape:connector-curvature="0" /><path
       d="M 59.91761,96.664123 H 564.32523 V 332.4 H 59.91761 Z"
       style="fill:#eaeaf2;fill-opacity:1;fill-rule:nonzero;stroke:none"
       id="path14"
       inkscape:connector-curvature="0" /><g
       id="g16"><g
         id="g18"
         clip-path="url(#clipPath22)"><path
           d="M 81.907494,96.664123 V 332.4"
           style="fill:none;stroke:#ffffff;stroke-width:1;stroke-linecap:round;stroke-linejoin:round;stroke-miterlimit:10;stroke-dasharray:none;stroke-opacity:1"
           id="path24"
           inkscape:connector-curvature="0" /></g></g><g
       id="g26"><text
         transform="matrix(0.70710678,0.70710678,0.70710678,-0.70710678,81.703096,76.074415)"
         style="font-variant:normal;font-weight:normal;font-size:15px;font-family:'Liberation Sans';-inkscape-font-specification:LiberationSans;writing-mode:lr-tb;fill:#262626;fill-opacity:1;fill-rule:nonzero;stroke:none"
         id="text30"><tspan
           x="0"
           y="0"
           id="tspan28">0</tspan></text>
</g><g
       id="g32"><g
         id="g34"
         clip-path="url(#clipPath38)"><path
           d="M 173.48317,96.664123 V 332.4"
           style="fill:none;stroke:#ffffff;stroke-width:1;stroke-linecap:round;stroke-linejoin:round;stroke-miterlimit:10;stroke-dasharray:none;stroke-opacity:1"
           id="path40"
           inkscape:connector-curvature="0" /></g></g><g
       id="g42"><text
         transform="matrix(0.70710678,0.70710678,0.70710678,-0.70710678,158.52897,46.574804)"
         style="font-variant:normal;font-weight:normal;font-size:15px;font-family:'Liberation Sans';-inkscape-font-specification:LiberationSans;writing-mode:lr-tb;fill:#262626;fill-opacity:1;fill-rule:nonzero;stroke:none"
         id="text46"><tspan
           x="0 8.3400002 16.68 25.02 33.360001 41.700001"
           y="0"
           sodipodi:role="line"
           id="tspan44">100000</tspan></text>
</g><g
       id="g48"><g
         id="g50"
         clip-path="url(#clipPath54)"><path
           d="M 265.05885,96.664123 V 332.4"
           style="fill:none;stroke:#ffffff;stroke-width:1;stroke-linecap:round;stroke-linejoin:round;stroke-miterlimit:10;stroke-dasharray:none;stroke-opacity:1"
           id="path56"
           inkscape:connector-curvature="0" /></g></g><g
       id="g58"><text
         transform="matrix(0.70710678,0.70710678,0.70710678,-0.70710678,250.10464,46.574804)"
         style="font-variant:normal;font-weight:normal;font-size:15px;font-family:'Liberation Sans';-inkscape-font-specification:LiberationSans;writing-mode:lr-tb;fill:#262626;fill-opacity:1;fill-rule:nonzero;stroke:none"
         id="text62"><tspan
           x="0 8.3400002 16.68 25.02 33.360001 41.700001"
           y="0"
           sodipodi:role="line"
           id="tspan60">200000</tspan></text>
</g><g
       id="g64"><g
         id="g66"
         clip-path="url(#clipPath70)"><path
           d="M 356.63452,96.664123 V 332.4"
           style="fill:none;stroke:#ffffff;stroke-width:1;stroke-linecap:round;stroke-linejoin:round;stroke-miterlimit:10;stroke-dasharray:none;stroke-opacity:1"
           id="path72"
           inkscape:connector-curvature="0" /></g></g><g
       id="g74"><text
         transform="matrix(0.70710678,0.70710678,0.70710678,-0.70710678,341.68032,46.574804)"
         style="font-variant:normal;font-weight:normal;font-size:15px;font-family:'Liberation Sans';-inkscape-font-specification:LiberationSans;writing-mode:lr-tb;fill:#262626;fill-opacity:1;fill-rule:nonzero;stroke:none"
         id="text78"><tspan
           x="0 8.3400002 16.68 25.02 33.360001 41.700001"
           y="0"
           sodipodi:role="line"
           id="tspan76">300000</tspan></text>
</g><g
       id="g80"><g
         id="g82"
         clip-path="url(#clipPath86)"><path
           d="M 448.2102,96.664123 V 332.4"
           style="fill:none;stroke:#ffffff;stroke-width:1;stroke-linecap:round;stroke-linejoin:round;stroke-miterlimit:10;stroke-dasharray:none;stroke-opacity:1"
           id="path88"
           inkscape:connector-curvature="0" /></g></g><g
       id="g90"><text
         transform="matrix(0.70710678,0.70710678,0.70710678,-0.70710678,433.256,46.574804)"
         style="font-variant:normal;font-weight:normal;font-size:15px;font-family:'Liberation Sans';-inkscape-font-specification:LiberationSans;writing-mode:lr-tb;fill:#262626;fill-opacity:1;fill-rule:nonzero;stroke:none"
         id="text94"><tspan
           x="0 8.3400002 16.68 25.02 33.360001 41.700001"
           y="0"
           sodipodi:role="line"
           id="tspan92">400000</tspan></text>
</g><g
       id="g96"><g
         id="g98"
         clip-path="url(#clipPath102)"><path
           d="M 539.78588,96.664123 V 332.4"
           style="fill:none;stroke:#ffffff;stroke-width:1;stroke-linecap:round;stroke-linejoin:round;stroke-miterlimit:10;stroke-dasharray:none;stroke-opacity:1"
           id="path104"
           inkscape:connector-curvature="0" /></g></g><g
       id="g106"><text
         transform="matrix(0.70710678,0.70710678,0.70710678,-0.70710678,524.83167,46.574804)"
         style="font-variant:normal;font-weight:normal;font-size:15px;font-family:'Liberation Sans';-inkscape-font-specification:LiberationSans;writing-mode:lr-tb;fill:#262626;fill-opacity:1;fill-rule:nonzero;stroke:none"
         id="text110"><tspan
           x="0 8.3400002 16.68 25.02 33.360001 41.700001"
           y="0"
           sodipodi:role="line"
           id="tspan108">500000</tspan></text>
<text
         transform="matrix(1,0,0,-1,218.71517,13.501144)"
         style="font-variant:normal;font-weight:normal;font-size:15px;font-family:'Liberation Sans';-inkscape-font-specification:LiberationSans;writing-mode:lr-tb;fill:#262626;fill-opacity:1;fill-rule:nonzero;stroke:none"
         id="text114"><tspan
           x="0 10.83 19.17 31.665001 40.005001 48.345001 53.34 57.509998 65.849998 70.019997 74.190002 78.360001 86.699997 90.870003 99.209999 104.205 112.545 120.045 124.215 127.545 135.88499 144.22501 148.395 158.39999 162.57001 170.91 179.25"
           y="0"
           sodipodi:role="line"
           id="tspan112">Number of Interaction Steps</tspan></text>
</g><g
       id="g116"><g
         id="g118"
         clip-path="url(#clipPath122)"><path
           d="M 59.91761,107.37939 H 564.32523"
           style="fill:none;stroke:#ffffff;stroke-width:1;stroke-linecap:round;stroke-linejoin:round;stroke-miterlimit:10;stroke-dasharray:none;stroke-opacity:1"
           id="path124"
           inkscape:connector-curvature="0" /></g></g><g
       id="g126"><text
         transform="matrix(0.70710678,0.70710678,0.70710678,-0.70710678,35.969145,90.377299)"
         style="font-variant:normal;font-weight:normal;font-size:15px;font-family:'Liberation Sans';-inkscape-font-specification:LiberationSans;writing-mode:lr-tb;fill:#262626;fill-opacity:1;fill-rule:nonzero;stroke:none"
         id="text130"><tspan
           x="0 8.3400002 12.51"
           y="0"
           sodipodi:role="line"
           id="tspan128">0.0</tspan></text>
</g><g
       id="g132"><g
         id="g134"
         clip-path="url(#clipPath138)"><path
           d="M 59.91761,152.46329 H 564.32523"
           style="fill:none;stroke:#ffffff;stroke-width:1;stroke-linecap:round;stroke-linejoin:round;stroke-miterlimit:10;stroke-dasharray:none;stroke-opacity:1"
           id="path140"
           inkscape:connector-curvature="0" /></g></g><g
       id="g142"><text
         transform="matrix(0.70710678,0.70710678,0.70710678,-0.70710678,35.969145,135.4612)"
         style="font-variant:normal;font-weight:normal;font-size:15px;font-family:'Liberation Sans';-inkscape-font-specification:LiberationSans;writing-mode:lr-tb;fill:#262626;fill-opacity:1;fill-rule:nonzero;stroke:none"
         id="text146"><tspan
           x="0 8.3400002 12.51"
           y="0"
           sodipodi:role="line"
           id="tspan144">0.2</tspan></text>
</g><g
       id="g148"><g
         id="g150"
         clip-path="url(#clipPath154)"><path
           d="M 59.91761,197.54719 H 564.32523"
           style="fill:none;stroke:#ffffff;stroke-width:1;stroke-linecap:round;stroke-linejoin:round;stroke-miterlimit:10;stroke-dasharray:none;stroke-opacity:1"
           id="path156"
           inkscape:connector-curvature="0" /></g></g><g
       id="g158"><text
         transform="matrix(0.70710678,0.70710678,0.70710678,-0.70710678,35.969145,180.5451)"
         style="font-variant:normal;font-weight:normal;font-size:15px;font-family:'Liberation Sans';-inkscape-font-specification:LiberationSans;writing-mode:lr-tb;fill:#262626;fill-opacity:1;fill-rule:nonzero;stroke:none"
         id="text162"><tspan
           x="0 8.3400002 12.51"
           y="0"
           sodipodi:role="line"
           id="tspan160">0.4</tspan></text>
</g><g
       id="g164"><g
         id="g166"
         clip-path="url(#clipPath170)"><path
           d="M 59.91761,242.63109 H 564.32523"
           style="fill:none;stroke:#ffffff;stroke-width:1;stroke-linecap:round;stroke-linejoin:round;stroke-miterlimit:10;stroke-dasharray:none;stroke-opacity:1"
           id="path172"
           inkscape:connector-curvature="0" /></g></g><g
       id="g174"><text
         transform="matrix(0.70710678,0.70710678,0.70710678,-0.70710678,35.969145,225.629)"
         style="font-variant:normal;font-weight:normal;font-size:15px;font-family:'Liberation Sans';-inkscape-font-specification:LiberationSans;writing-mode:lr-tb;fill:#262626;fill-opacity:1;fill-rule:nonzero;stroke:none"
         id="text178"><tspan
           x="0 8.3400002 12.51"
           y="0"
           sodipodi:role="line"
           id="tspan176">0.6</tspan></text>
</g><g
       id="g180"><g
         id="g182"
         clip-path="url(#clipPath186)"><path
           d="M 59.91761,287.71499 H 564.32523"
           style="fill:none;stroke:#ffffff;stroke-width:1;stroke-linecap:round;stroke-linejoin:round;stroke-miterlimit:10;stroke-dasharray:none;stroke-opacity:1"
           id="path188"
           inkscape:connector-curvature="0" /></g></g><g
       id="g190"><text
         transform="matrix(0.70710678,0.70710678,0.70710678,-0.70710678,35.969145,270.7129)"
         style="font-variant:normal;font-weight:normal;font-size:15px;font-family:'Liberation Sans';-inkscape-font-specification:LiberationSans;writing-mode:lr-tb;fill:#262626;fill-opacity:1;fill-rule:nonzero;stroke:none"
         id="text194"><tspan
           x="0 8.3400002 12.51"
           y="0"
           sodipodi:role="line"
           id="tspan192">0.8</tspan></text>
<text
         transform="matrix(0,1,1,0,21.169983,143.243)"
         style="font-variant:normal;font-weight:normal;font-size:15px;font-family:'Liberation Sans';-inkscape-font-specification:LiberationSans;writing-mode:lr-tb;fill:#262626;fill-opacity:1;fill-rule:nonzero;stroke:none"
         id="text198"><tspan
           x="0 10.005 17.504999 25.004999 33.345001 45.84 54.18 57.509998 65.849998 70.019997 78.360001 86.699997 90.870003 101.7 110.04 120.87 129.21001 134.205"
           y="0"
           sodipodi:role="line"
           id="tspan196">Accumulated Reward</tspan></text>
</g><g
       id="g200"><g
         id="g202"
         clip-path="url(#clipPath206)"><path
           d="m 82.845229,107.37939 v 0 h 0.937735 0.937735 0.937735 0.937735 0.937735 0.937735 0.937735 0.937735 0.937735 0.937735 0.937735 0.937734 0.937735 l 0.937735,0.0704 0.937735,0.092 0.937735,0.16555 0.937735,-0.0316 0.937735,0.0854 0.937732,0.0806 0.93774,0.0372 0.93773,-0.0669 0.93774,0.0223 0.93773,0.069 0.93774,0.0729 0.93773,-0.10045 0.93774,0.0201 0.93773,0.0173 0.93774,0.0842 0.93773,-0.19169 0.93774,0.062 0.93773,-6.9e-4 0.93774,0.10051 0.93773,0.13726 0.93774,-0.0478 0.93773,-0.0386 0.93774,0.2245 0.93773,-0.20998 0.93774,0.0433 0.93773,0.0413 0.93774,-0.0141 0.93773,-0.0141 0.93774,-0.23498 0.93773,0.14616 0.93774,-0.0323 0.93773,0.0605 0.93774,-0.11623 0.93773,0.096 0.93774,-0.0109 0.93773,-0.0124 0.93774,-0.009 0.93773,0.0426 0.93774,-0.0426 0.93773,-0.0665 0.93774,-0.0378 0.93773,0.12061 0.93774,-0.15122 0.93773,0.25978 0.93773,0.0713 0.93774,-0.077 0.93773,0.24513 0.93774,-0.11974 0.93773,-0.0108 0.93774,0.28083 0.93773,-0.0475 0.93774,0.0691 0.93773,0.55557 0.93774,-0.23622 0.93773,-0.0113 h 0.93774 l 0.93773,0.25304 0.93774,-2e-4 0.93773,0.25933 0.93774,0.43694 0.93773,0.61092 0.93774,-0.36914 0.93773,0.95696 0.93774,0.33627 0.93773,0.0401 0.93774,0.40921 0.93773,0.19682 0.93774,2.89407 0.93773,-1.64628 0.93774,1.10215 0.93773,0.91552 0.93774,-0.0502 0.93773,1.52874 0.93774,-0.88555 0.93773,2.06407 0.93774,0.73341 0.93773,-1.44365 0.93774,0.97966 0.93773,-0.57646 0.93774,1.8114 0.93773,0.11362 0.93774,1.04821 0.93773,1.00068 0.93774,0.11312 0.93773,-2.41189 0.93774,0.40844 0.93773,1.60466 0.93774,0.53837 0.93773,-2.69135 0.93774,4.8383 0.93773,1.05733 0.93774,-0.32979 0.93773,1.80817 0.93774,-2.52329 0.93773,-0.4736 0.93774,1.25697 0.93773,6.26185 0.93774,-1.41787 0.93773,-0.16908 0.93774,2.05791 0.93773,1.9242 0.93774,0.92599 0.93773,-0.77362 0.93774,2.28261 0.93773,-0.35207 0.93774,-1.60309 0.93773,0.66657 0.93774,1.74793 0.93773,-4.18563 0.93773,-0.1204 0.93774,1.50698 0.93773,1.70245 0.93774,0.22091 0.93773,1.28528 0.93774,-4.49855 0.93773,0.53259 0.93774,-0.0902 0.93773,0.0711 0.93774,5.55275 0.93773,-5.73776 0.93774,4.82399 0.93773,-4.92711 0.93774,4.14361 0.93773,-0.84767 0.93774,-3.67018 0.93773,0.48645 0.93774,-1.30274 0.93773,1.89205 0.93774,5.32727 0.93773,-5.1526 0.93774,-0.45516 0.93773,0.40133 0.93774,0.22792 0.93773,5.43378 0.93774,0.16249 0.93773,-0.49639 0.93774,0.62249 0.93773,-0.59713 0.93774,-0.49908 0.93773,-3.84586 0.93774,1.4 0.93773,3.50849 0.93774,-2.8816 0.93773,0.25593 0.93774,3.30991 0.93773,-2.35327 0.93774,2.03534 0.93773,-4.78125 0.93774,4.28822 0.93773,1.93806 0.93774,-1.49191 0.93773,-1.07694 0.93774,4.26986 0.93773,-1.23088 0.93774,2.27345 0.93773,-3.8843 0.93774,6.00015 0.93773,-0.32687 0.93774,0.78992 0.93773,0.0275 0.93774,-3.50434 0.93773,6.00951 0.93774,-1.2816 0.93773,0.26111 0.93774,-1.98399 0.93773,0.34051 0.93774,0.64817 0.93773,-0.048 0.93774,0.53168 0.93773,0.80827 0.93774,0.64459 0.93773,0.48008 0.93774,0.72163 0.93773,1.23014 0.93774,-4.49514 0.93773,3.28048 0.93774,2.8903 0.93773,-2.19311 0.93773,-4.14427 0.93774,5.68486 0.93773,-2.15587 0.93774,-3.77859 0.93773,0.58515 0.93774,2.4617 0.93773,1.58823 0.93774,-4.33172 0.93773,-0.17891 0.93774,0.10619 0.93774,-0.7306 0.93773,3.09651 0.93773,4.23662 0.93774,1.52694 0.93773,0.19785 0.93774,-1.01308 0.93773,-3.11568 0.93774,1.23071 0.93773,-1.18292 0.93774,-1.39532 0.93773,3.29711 0.93774,-2.39543 0.93773,3.25724 0.93774,-2.93105 0.93773,-0.0604 0.93774,-4.00079 0.93773,0.17671 0.93774,6.34315 0.93773,0.74201 0.93774,-3.82938 0.93773,1.1027 0.93774,-0.14879 0.93773,4.46997 0.93774,-8.4368 0.93773,8.09494 0.93774,-8.51378 0.93773,4.37667 0.93774,1.4131 0.93773,-0.33715 0.93774,4.34655 0.93773,-4.05799 0.93774,2.68132 0.93773,0.95086 0.93774,-9.08473 0.93773,3.23711 0.93774,0.76723 0.93773,-3.80067 0.93774,3.90437 0.93773,-0.25805 0.93774,0.24873 0.93773,4.05841 0.93774,-8.23274 0.93773,3.39925 0.93774,4.65981 0.93773,-4.38786 0.93774,0.50282 0.93773,-3.7497 0.93774,7.92092 0.93773,-3.55875 0.93774,3.86405 0.93773,0.20034 0.93774,-8.28492 0.93773,5.31221 0.93774,-5.47838 0.93773,9.33269 0.93774,0.0183 0.93773,-3.80451 0.93774,3.84046 0.93773,-4.28806 0.93773,-5.09102 0.93774,5.03652 0.93773,0.0633 0.93774,3.26863 0.93774,-7.76455 0.93773,0.0644 0.93773,7.92609 0.93774,-0.34241 0.93773,-8.44189 0.93774,0.0486 0.93773,3.63659 0.93774,0.73267 0.93774,-4.07331 0.93773,8.46651 0.93773,-4.30599 0.93774,0.42302 0.93773,-0.41636 0.93774,-1.5556 0.93773,2.45901 0.93774,-4.15636 0.93773,3.73022 0.93774,5.33433 0.93773,-3.07476 0.93774,0.4986 0.93773,2.68711 0.93774,-0.32576 0.93773,2.71652 0.93774,-1.74744 0.93773,1.21677 0.93774,-0.25099 0.93773,-2.5746 0.93774,5.5648 0.93773,-7.43358 0.93774,4.29068 0.93773,0.87853 0.93774,0.19686 0.93773,2.21161 0.93774,1.2046 0.93773,-3.59689 0.93774,0.71643 0.93773,-0.13342 0.93774,0.49663 0.93773,3.92059 0.93774,-0.54314 0.93773,0.59648 0.93774,-3.63426 0.93773,-1.17051 0.93774,4.73853 0.93773,-4.31882 0.93774,4.0009 0.93773,-4.14083 0.93774,0.18829 0.93773,0.98725 0.93774,-1.20873 0.93773,-0.24855 0.93774,1.5651 0.93773,4.08589 0.93774,-3.56435 0.93773,3.74722 0.93774,-5.38871 0.93773,5.19869 0.93774,-5.63578 0.93773,-0.48202 0.93774,0.65485 0.93773,7.9383 0.93774,-4.74837 0.93773,4.26034 0.93774,0.86172 0.93773,-8.43414 0.93773,10.07701 0.93774,-4.35753 0.93773,3.10024 0.93774,-3.24903 0.93773,-5.22793 0.93774,7.65721 0.93773,-1.96382 0.93774,-6.18789 0.93773,0.22211 0.93774,-0.075 0.93773,3.9531 0.93774,3.23281 0.93773,-6.80035 0.93774,6.68716 0.93773,-6.77251 0.93774,3.29294 0.93773,-3.24152 0.93774,6.22484 0.93773,2.15163 0.93774,-0.10047 0.93773,-8.16035 0.93774,7.17038 0.93773,-2.21442 0.93774,4.57774 0.93773,-9.69104 0.93774,3.83222 0.93773,3.82296 0.93774,-2.33996 0.93773,-0.61381 0.93774,1.51307 0.93773,3.19388 0.93774,-0.7984 0.93773,-1.41941 0.93774,0.44341 0.93773,-3.47506 0.93774,3.00702 0.93773,-0.55116 0.93774,0.50562 0.93773,-0.27816 0.93774,1.287 0.93773,0.41019 0.93774,-0.38492 0.93773,0.69998 0.93774,-2.74999 0.93773,2.51296 0.93774,-3.45991 0.93773,3.77134 0.93774,-3.34782 0.93773,0.16367 0.93774,-1.41438 0.93773,3.82027 0.93774,0.33988 0.93773,0.19438 0.93774,0.19098 0.93773,-9.3961 0.93774,9.08603 0.93773,-2.16208 0.93774,-6.21233 0.93773,5.58494 0.93774,1.58239 0.93773,-1.51544 0.93774,3.93602 0.93773,-9.56185 0.93774,9.19607 0.93773,-1.80325 0.93774,1.60162 0.93773,-1.33883 0.93774,2.52924 0.93773,0.29662 0.93773,-2.7382 0.93774,3.07824 0.93773,-0.463 0.93774,-1.42686 0.93773,-2.13706 0.93774,2.84304 0.93774,-1.52788 0.93773,1.12853 0.93773,0.18443 0.93774,0.93089 0.93773,-0.38341 0.93774,-2.47288 0.93773,0.71211 0.93774,0.66368 0.93773,-0.79737 0.93774,-7.11675 0.93773,-1.11187 0.93774,5.38405 0.93773,4.18081 0.93774,1.57782 0.93773,-1.66552 0.93774,2.86033 0.93773,-1.75743 0.93774,1.44884 0.93773,-9.72777 0.93774,2.71133 0.93773,7.8471 0.93774,-2.11014 0.93773,1.18352 0.93774,1.15475 0.93773,0.56907 0.93774,-1.16336 0.93773,4.02609 0.93774,-3.54632 0.93773,2.30566 0.93774,-1.72012 0.93773,3.39756 0.93774,1.30611 0.93773,-3.94149 0.93774,1.56352 0.93773,-2.75979 0.93774,6.23011 0.93773,-1.17438 0.93774,-3.16317 0.93773,2.66275 0.93774,-0.86593 0.93773,-3.65886 0.93774,3.86913 0.93773,2.01999 0.93774,-0.41466 0.93773,0.21415 0.93774,-5.57699 0.93773,3.94684 0.93774,0.57646 0.93773,5.69361 0.93774,-6.57167 0.93773,0.40236 0.93774,2.5347 0.93773,0.68396 0.93774,-1.06816 0.93773,-0.41758 0.93774,-6.14192 0.93773,8.10091 0.93774,-1.80383 0.93773,-1.66467 0.93774,1.94318 0.93773,2.14965 0.93773,0.0908 0.93774,-1.05037 0.93774,-7.89256 0.93773,10.72819 0.93773,-10.14865 0.93774,-0.18796 0.93773,-0.073 0.93774,6.63575 0.93773,2.70482 0.93774,0.6937 0.93773,-9.9822 0.93774,8.02502 0.93773,-7.83439 0.93774,9.30279 0.93773,0.59734 0.93774,-1.11754 0.93773,-2.18853 0.93774,5.19246 0.93773,-2.23248 0.93774,-1.08888 0.93773,0.12134 0.93774,0.63543 0.93773,1.06614 v 133.0144 0 l -0.93773,-0.0234 -0.93774,-0.91952 -0.93773,-1.45194 -0.93774,1.30395 -0.93773,-0.5905 -0.93774,1.18645 -0.93773,-1.70977 -0.93774,1.36753 -0.93773,-0.88494 -0.93774,-0.71141 -0.93773,0.97069 -0.93774,0.44215 -0.93773,-2.71939 -0.93774,0.4946 -0.93773,1.06688 -0.93774,0.12033 -0.93773,0.42474 -0.93774,0.10216 -0.93773,0.19646 -0.93773,0.25664 -0.93774,-0.99852 -0.93774,-0.0686 -0.93773,-1.37363 -0.93773,-0.2889 -0.93774,1.60036 -0.93773,-0.39587 -0.93774,-2.82952 -0.93773,2.38044 -0.93774,0.56578 -0.93773,0.20843 -0.93774,-0.20182 -0.93773,-1.51279 -0.93774,2.22956 -0.93773,-2.77067 -0.93774,1.54026 -0.93773,-0.56526 -0.93774,0.20617 -0.93773,-0.5055 -0.93774,0.7702 -0.93773,-3.02536 -0.93774,0.74331 -0.93773,0.26882 -0.93774,-1.2217 -0.93773,1.39841 -0.93774,-0.0448 -0.93773,-0.3023 -0.93774,1.22645 -0.93773,-0.088 -0.93774,-3.407 -0.93773,2.17107 -0.93774,-1.00328 -0.93773,0.60701 -0.93774,-2.4219 -0.93773,0.012 -0.93774,1.83797 -0.93773,-0.90653 -0.93774,0.3918 -0.93773,-4.30351 -0.93774,0.97507 -0.93773,0.56228 -0.93774,-0.98697 -0.93773,-3.2591 -0.93774,0.97625 -0.93773,2.13035 -0.93774,-2.57899 -0.93773,1.82552 -0.93774,-0.5787 -0.93773,0.56751 -0.93774,-1.37098 -0.93773,-0.0884 -0.93774,-1.40996 -0.93773,-0.43431 -0.93774,5.43301 -0.93773,-1.89585 -0.93774,0.89802 -0.93773,-2.53778 -0.93774,0.001 -0.93773,1.15103 -0.93774,5.23809 -0.93773,-7.73886 -0.93774,2.47323 -0.93773,0.19823 -0.93773,-1.68322 -0.93774,-0.61667 -0.93774,2.26424 -0.93773,-0.92265 -0.93774,-0.91055 -0.93773,1.85509 -0.93774,0.10092 -0.93773,-1.5135 -0.93773,-0.45981 -0.93774,-0.64057 -0.93773,2.4411 -0.93774,-2.24517 -0.93773,-0.0484 -0.93774,3.15244 -0.93773,-3.16057 -0.93774,-3.3431 -0.93773,1.2571 -0.93774,4.4598 -0.93773,-1.51662 -0.93774,0.14535 -0.93773,0.92786 -0.93774,-3.89311 -0.93773,1.60141 -0.93774,-0.40434 -0.93773,-0.76325 -0.93774,0.34515 -0.93773,1.73506 -0.93774,0.76201 -0.93773,0.23573 -0.93774,-1.68284 -0.93773,-0.4102 -0.93774,-0.58068 -0.93773,0.28559 -0.93774,2.19195 -0.93773,-1.25117 -0.93774,-0.90017 -0.93773,-0.9426 -0.93774,0.92271 -0.93773,2.98211 -0.93774,-0.72947 -0.93773,-1.68942 -0.93774,-1.04186 -0.93773,1.44747 -0.93774,-2.2305 -0.93773,0.77906 -0.93774,2.66523 -0.93773,-3.97771 -0.93774,3.09084 -0.93773,-2.864 -0.93774,1.01879 -0.93773,-0.31676 -0.93774,3.29181 -0.93773,-3.42137 -0.93774,-0.70304 -0.93773,4.14116 -0.93774,-1.82491 -0.93773,0.85763 -0.93774,0.13742 -0.93773,0.39488 -0.93774,-1.17633 -0.93773,-2.0732 -0.93774,1.63248 -0.93773,1.75899 -0.93774,-0.93958 -0.93773,-0.12743 -0.93774,-0.50244 -0.93773,-1.90114 -0.93774,-0.21382 -0.93773,3.18774 -0.93774,-0.64385 -0.93773,-1.78071 -0.93774,2.86067 -0.93773,-2.49826 -0.93774,1.13888 -0.93773,1.23714 -0.93774,-1.2201 -0.93773,-1.73021 -0.93773,2.31366 -0.93774,-2.30089 -0.93773,0.71464 -0.93774,-1.15168 -0.93773,1.32343 -0.93774,-2.18316 -0.93773,-1.82214 -0.93774,3.92438 -0.93773,-3.85038 -0.93774,0.37818 -0.93773,2.04207 -0.93774,0.42216 -0.93773,-2.90697 -0.93774,-0.4954 -0.93773,0.79183 -0.93774,3.14488 -0.93773,0.0821 -0.93774,-4.42514 -0.93773,3.58954 -0.93774,-0.3368 -0.93773,0.52902 -0.93774,-0.19678 -0.93773,-3.98979 -0.93774,4.01381 -0.93773,-5.37166 -0.93774,2.28228 -0.93773,3.23413 -0.93774,0.78036 -0.93773,-4.36049 -0.93774,-0.11018 -0.93773,0.0267 -0.93774,0.17802 -0.93773,-2.3512 -0.93774,3.07242 -0.93773,-1.94605 -0.93774,0.39461 -0.93773,-5.05535 -0.93774,2.88554 -0.93773,-1.76682 -0.93774,0.29747 -0.93773,-0.24882 -0.93774,1.48528 -0.93773,1.41361 -0.93774,-3.78119 -0.93773,-1.14169 -0.93774,2.84453 -0.93773,-1.56937 -0.93774,0.87263 -0.93773,-0.63259 -0.93774,1.34115 -0.93773,-3.79867 -0.93774,2.86463 -0.93773,0.0649 -0.93774,-4.65941 -0.93773,2.76207 -0.93773,0.0916 -0.93774,1.80045 -0.93774,-1.07459 -0.93773,-0.27036 -0.93774,-0.0248 -0.93773,0.85471 -0.93774,-4.14277 -0.93773,4.06914 -0.93773,0.74316 -0.93774,0.17871 -0.93774,-5.17398 -0.93773,10e-4 -0.93774,3.29476 -0.93773,-2.98102 -0.93773,4.1955 -0.93774,-3.3145 -0.93773,3.70508 -0.93774,-0.0449 -0.93773,-0.27763 -0.93774,5.41445 -0.93773,-5.73976 -0.93774,-0.78334 -0.93773,0.8878 -0.93774,-0.1463 -0.93773,-0.67095 -0.93774,-0.88598 -0.93773,1.02996 -0.93774,-0.3726 -0.93773,-0.1582 -0.93774,0.80816 -0.93773,-1.42526 -0.93774,0.68307 -0.93773,-0.82954 -0.93774,1.54401 -0.93773,-3.76215 -0.93774,2.40745 -0.93773,0.85802 -0.93774,0.0223 -0.93773,-2.99863 -0.93774,2.81062 -0.93773,-1.58414 -0.93774,1.03391 -0.93773,-0.28385 -0.93774,0.68919 -0.93773,-1.89115 -0.93774,-0.56006 -0.93773,-1.74208 -0.93774,4.10466 -0.93773,0.0575 -0.93774,-0.37769 -0.93773,-1.87141 -0.93774,-1.34081 -0.93773,2.7395 -0.93774,-5.31364 -0.93773,3.11516 -0.93774,0.13932 -0.93773,2.62762 -0.93774,-0.75025 -0.93773,4.72447 -0.93774,-5.03377 -0.93773,-0.35682 -0.93774,0.11626 -0.93773,-0.16136 -0.93774,-0.59608 -0.93773,-1.64137 -0.93774,1.05973 -0.93773,0.25716 -0.93774,-1.82211 -0.93773,0.0675 -0.93774,-1.436 -0.93773,2.84149 -0.93773,-6.43843 -0.93774,1.63618 -0.93774,1.39028 -0.93773,5.50407 -0.93774,-1.35311 -0.93773,0.15827 -0.93774,0.54826 -0.93773,-3.77796 -0.93774,1.51142 -0.93773,1.03237 -0.93774,-2.14539 -0.93773,0.99724 -0.93773,-1.86077 -0.93774,0.82884 -0.93773,-1.88113 -0.93774,0.92085 -0.93773,-0.7347 -0.93774,0.728 -0.93773,1.85813 -0.93774,-4.13378 -0.93773,1.71734 -0.93774,-1.10384 -0.93773,-1.0857 -0.93774,0.51315 -0.93773,-1.06258 -0.93774,-0.0446 -0.93773,-0.45671 -0.93774,3.01124 -0.93773,-6.52709 -0.93774,-1.19697 -0.93773,5.07293 -0.93774,-4.1287 -0.93773,-1.08058 -0.93774,-1.56161 -0.93773,0.69101 -0.93774,-1.58596 -0.93773,-0.40116 -0.93774,-1.18512 -0.93773,1.90204 -0.93774,2.0038 -0.93773,-1.08709 -0.93774,-4.53473 -0.93773,3.39461 -0.93774,-0.57297 -0.93773,1.67563 -0.93774,-4.13927 -0.93773,-1.45707 -0.93774,3.69384 -0.93773,0.51981 -0.93774,-3.98415 -0.93773,3.55001 -0.93774,-0.29603 -0.93773,-2.19858 -0.93774,1.22586 -0.93773,1.43807 -0.93774,-2.20968 -0.93773,1.58194 -0.93774,-2.48859 -0.93773,1.31246 -0.93774,-3.08163 -0.93773,1.67418 -0.93774,-3.0059 -0.93773,-1.85434 -0.93774,-1.18558 -0.93773,0.44695 -0.93774,3.00289 -0.93773,-2.12323 -0.93774,0.53287 -0.93773,0.0702 -0.93774,-2.1941 -0.93773,1.76945 -0.93774,0.4926 -0.93773,0.22345 -0.93774,0.31792 -0.93773,-1.9823 -0.93774,-3.74336 -0.93773,4.63729 -0.93774,1.2339 -0.93773,0.68315 -0.93774,-5.88898 -0.93773,-0.79972 -0.93773,1.62576 -0.93774,-1.46814 -0.93773,0.014 -0.93774,1.33487 -0.93773,-0.85865 -0.93774,-3.74441 -0.93773,1.39747 -0.93774,1.37276 -0.93773,-5.64823 -0.93774,-1.06076 -0.93773,1.48908 -0.93774,0.49486 -0.93773,-2.08704 -0.93774,-2.82877 -0.93773,-3.38231 -0.93774,2.42765 -0.93773,-4.97425 -0.93774,-0.48866 -0.93773,0.0226 -0.93774,2.95137 -0.93773,-4.03561 -0.93774,-3.12672 -0.93773,-1.38347 -0.93774,3.99175 -0.93773,-5.75706 -0.93774,4.48209 -0.93773,-7.27198 -0.93774,2.10706 -0.93773,-3.79717 -0.93774,-0.51827 -0.93773,2.13667 -0.93774,0.003 -0.93773,-4.15268 -0.93774,3.51595 -0.93773,-5.88823 -0.93774,-1.07564 -0.93773,-0.52563 -0.93774,-2.8893 -0.93773,-2.84067 -0.93774,-3.44582 -0.93773,2.01991 -0.93774,-3.70351 -0.93773,-2.90434 -0.93774,-1.77817 -0.93773,1.55317 -0.93774,-3.2101 -0.93773,-2.47922 -0.93774,-3.08285 -0.93773,4.52242 -0.93774,-5.06625 -0.93773,3.03895 -0.93774,-2.72465 -0.93773,-1.816 -0.93774,-4.13334 -0.93773,2.24113 -0.93774,-5.72038 -0.93773,1.1514 -0.93774,-5.22185 -0.93773,-3.80836 -0.93774,-2.80111 -0.93773,1.45871 -0.93774,2.28964 -0.93773,-4.74779 -0.93774,-2.46683 -0.93773,-2.57788 -0.93773,-3.24447 -0.93774,-1.72122 -0.93773,-2.64025 -0.93774,-1.98289 -0.93773,-4.52926 -0.93774,-1.60923 -0.93773,-6.49155 -0.93774,-6.91568 -0.93773,-1.80046 -0.93774,-5.26686 -0.93773,-2.91906 -0.93774,-2.21102 -0.93773,-4.0357 -0.93774,1.56854 -0.93773,-2.18416 -0.93774,-3.17007 -0.93773,-0.31855 -0.93774,-1.71048 -0.93773,-1.00663 -0.93774,-0.28332 -0.93773,-2.0245 -0.93774,-1.34663 -0.93773,-0.68351 -0.93774,-0.43262 -0.93773,-2.12203 -0.93774,-0.53961 -0.93773,-1.23546 -0.93774,-0.84345 -0.93773,-0.75529 -0.93774,-0.21363 -0.93773,-0.62814 -0.93774,-0.62485 -0.93773,-0.099 -0.93774,-0.26205 -0.93773,-0.26703 -0.93774,-0.72266 -0.93773,0.57967 -0.93774,-0.76489 -0.937732,-0.49146 -0.937735,-0.84186 -0.937735,0.0186 -0.937735,0.3271 -0.937735,-0.55135 -0.937735,-0.44187 -0.937735,-0.0577 -0.937734,0.51604 -0.937735,-0.24742 -0.937735,-0.54479 -0.937735,-0.34899 -0.937735,1.40232 -0.937735,-0.35814 -0.937735,0.0261 -0.937735,-0.98496 -0.937735,0.22292 -0.937735,-0.77796 -0.937735,-1.11829 h -0.937735 z"
           style="fill:#ff7f0e;fill-opacity:0.1;fill-rule:nonzero;stroke:#ff7f0e;stroke-width:0.30000001;stroke-linecap:butt;stroke-linejoin:round;stroke-miterlimit:10;stroke-dasharray:none;stroke-opacity:0.1"
           id="path208"
           inkscape:connector-curvature="0" /></g></g><g
       id="g210"><g
         id="g212"
         clip-path="url(#clipPath216)"><path
           d="m 83.782964,107.37939 v 0 h 1.87547 1.87547 l 1.87547,0.18509 1.87547,0.0336 1.87547,0.0804 1.875469,-0.004 1.87547,0.25571 1.87547,-0.0522 1.875467,0.68301 1.87547,-0.12359 1.87547,0.0748 1.87547,0.15323 1.87547,0.10843 1.87547,-0.0612 1.87547,0.069 1.87547,0.006 1.87547,0.0211 1.87547,0.54622 1.87547,0.0671 1.87547,0.58192 1.87547,0.21036 1.87547,0.39102 1.87547,-0.2316 1.87547,0.79152 1.87547,0.30138 1.87547,0.79087 1.87547,0.34667 1.87547,0.93834 1.87547,0.51655 1.87547,0.55557 1.87547,1.53657 1.87547,1.06888 1.87547,1.23533 1.87547,1.28516 1.87547,1.14401 1.87547,1.10495 1.87547,0.42615 1.87547,1.88873 1.87547,1.93783 1.87547,1.89306 1.87547,1.64195 1.87547,1.80029 1.87547,3.07055 1.87547,2.09971 1.87547,2.1126 1.87547,1.59801 1.87547,2.6184 1.87547,4.74253 1.87547,3.16408 1.87547,4.20722 1.87547,2.55444 1.87547,3.39808 1.87547,5.75494 1.87547,5.14886 1.87547,4.32552 1.87547,1.75229 1.87547,7.60477 1.87547,4.55367 1.87547,6.03002 1.87547,3.72906 1.87546,6.95528 1.87547,4.27575 1.87547,2.11343 1.87547,1.52693 1.87547,2.29938 1.87547,1.59309 1.87547,1.79181 1.87547,3.41646 1.87547,2.45711 1.87547,3.16656 1.87547,3.46493 1.87547,3.60986 1.87547,1.11291 1.87547,4.27376 1.87547,4.2232 1.87547,0.34389 1.87547,3.94205 1.87547,6.15293 1.87547,1.34594 1.87547,2.74122 1.87547,2.98438 1.87547,0.69824 1.87547,1.90777 1.87547,2.74166 1.87547,0.90613 1.87547,1.56754 1.87547,2.18501 1.87547,1.51983 1.87547,2.03965 1.87547,1.4683 1.87547,1.78411 1.87547,-0.0596 1.87547,3.06861 1.87547,0.25279 1.87547,2.0917 1.87547,2.08899 1.87547,2.40451 1.87547,0.34347 1.87547,2.3545 1.87547,0.43468 1.87547,1.50586 1.87547,2.07855 1.87547,2.10233 1.87547,2.15046 1.87547,1.33952 1.87547,0.26062 1.87547,1.02556 1.87547,0.87196 1.87547,0.87525 1.87547,0.0345 1.87547,1.70315 1.87547,1.00408 1.87547,-0.58573 1.87547,2.1887 1.87547,0.79226 1.87547,0.16138 1.87547,0.20567 1.87547,0.98877 1.87547,0.33612 1.87547,0.0961 1.87547,0.8061 1.87547,0.9416 1.87547,0.44514 1.87547,0.23742 1.87547,0.34444 1.87547,0.25311 1.87547,0.10188 1.87547,0.36551 1.87547,0.15166 1.87546,-0.62507 1.87547,1.04561 1.87548,0.0543 1.87546,0.0849 1.87547,0.56642 1.87547,0.0941 1.87548,-0.46189 1.87546,0.55956 1.87547,0.65074 1.87547,0.16857 1.87547,-0.14741 1.87547,-0.22351 1.87547,0.44941 1.87547,0.16226 1.87547,0.0134 1.87547,0.0907 1.87547,0.43855 1.87547,-0.26277 1.87547,0.24828 1.87547,-0.2907 1.87547,0.0545 1.87547,-0.0836 1.87547,0.11087 1.87547,-0.38263 1.87547,0.58741 1.87547,0.23712 1.87547,0.34894 1.87547,0.16003 1.87547,-0.18456 1.87547,-0.0286 1.87547,-0.11927 1.87547,0.193 1.87547,-0.13096 1.87547,-0.11426 1.87547,-0.2243 1.87547,0.37845 1.87547,0.0663 1.87547,-0.83983 1.87547,0.31784 1.87547,0.56794 1.87547,0.32313 1.87547,0.12251 1.87547,-0.16993 1.87547,0.15122 1.87547,0.0742 1.87547,0.30765 1.87547,-0.24285 1.87547,0.0276 1.87547,-0.18119 1.87547,-0.62266 1.87547,-0.0742 1.87547,0.57334 1.87547,0.22078 1.87547,-0.0103 1.87547,0.10085 1.87547,-0.23279 1.87547,0.25312 1.87547,-0.19676 1.87547,0.0465 1.87547,0.0313 1.87547,0.0959 1.87547,0.26499 1.87547,0.0517 1.87547,0.0356 1.87547,-0.20804 1.87547,0.27326 1.87547,-0.4089 1.87547,0.25263 1.87547,-0.0446 1.87546,-0.0879 1.87547,0.14845 1.87547,-0.005 1.87548,-0.1461 1.87546,-0.50532 1.87547,0.28981 1.87547,-0.0141 1.87547,0.007 1.87547,-0.14077 1.87547,0.26345 1.87547,0.30238 1.87547,-0.0109 1.87547,10e-4 1.87547,-0.26767 1.87547,0.30385 1.87547,0.0868 1.87547,-0.40353 1.87547,0.2292 1.87547,-0.0408 1.87547,0.17374 1.87547,0.25454 1.87547,0.0405 1.87547,0.0282 1.87547,-0.18736 1.87547,-0.14467 1.87547,0.0897 1.87547,-0.0929 1.87547,0.19152 1.87547,-0.0746 1.87547,-0.005 1.87547,0.10361 1.87547,-0.43723 1.87547,0.34895 1.87547,0.11743 1.87547,-0.14464 1.87547,0.0902 1.87547,0.0258 1.87547,0.12582 1.87547,0.0474 1.87547,0.0155 1.87547,-0.12863 1.87547,0.0324 1.87547,-0.17324 1.87547,-0.15077 1.87547,-0.0296 1.87547,-9.8e-4 v 0.74911 0 l -1.87547,-0.0258 -1.87547,-0.0197 -1.87547,0.0343 -1.87547,0.0216 -1.87547,-0.0423 -1.87547,0.062 -1.87547,0.0235 -1.87547,-0.0498 -1.87547,-0.0507 -1.87547,0.0113 -1.87547,-0.023 -1.87547,0.0723 -1.87547,-0.0545 -1.87547,-0.0352 -1.87547,0.0535 -1.87547,0.0155 -1.87547,0.0577 -1.87547,-0.0136 -1.87547,-0.0578 -1.87547,0.002 -1.87547,-0.0714 -1.87547,0.0977 -1.87547,0.002 -1.87547,-0.0226 -1.87547,0.003 -1.87547,-0.0629 -1.87547,-0.0386 -1.87547,0.031 -1.87547,-0.1507 -1.87547,0.18404 -1.87547,-0.0564 -1.87547,2e-5 -1.87547,0.01 -1.87547,-0.004 -1.87547,-0.005 -1.87547,-0.12631 -1.87547,-0.0465 -1.87547,0.0845 -1.87547,0.0498 -1.87547,0.0244 -1.87547,-0.046 -1.87546,0.0178 -1.87548,0.0381 -1.87547,0.0253 -1.87547,-0.0559 -1.87546,-0.0573 -1.87547,0.0122 -1.87547,-0.022 -1.87547,0.10418 -1.87547,-0.11785 -1.87547,0.11977 -1.87547,-0.092 -1.87547,0.0211 -1.87547,-0.0224 -1.87547,-0.13816 -1.87547,0.0488 -1.87547,-0.0864 -1.87547,-0.0122 -1.87547,-0.069 -1.87547,0.1301 -1.87547,-0.0258 -1.87547,-0.13101 -1.87547,0.13572 -1.87547,-0.0874 -1.87547,0.15637 -1.87547,-0.10472 -1.87547,0.0488 -1.87547,0.077 -1.87547,-0.0962 -1.87547,-0.0963 -1.87547,-0.0295 -1.87547,0.0272 -1.87547,0.0924 -1.87547,-0.15254 -1.87547,-0.17138 -1.87547,-0.17761 -1.87547,-0.0662 -1.87547,0.23576 -1.87547,-0.0493 -1.87547,-0.14036 -1.87547,0.33146 -1.87547,-0.0432 -1.87547,0.003 -1.87547,-0.0897 -1.87547,0.007 -1.87547,-10e-4 -1.87547,0.0755 -1.87547,-0.40251 -1.87547,-0.0258 -1.87547,0.0865 -1.87547,-0.42455 -1.87547,0.38742 -1.87547,-0.0782 -1.87547,-0.0933 -1.87547,10e-4 -1.87547,0.0858 -1.87547,-0.09 -1.87547,-0.0418 -1.87547,-0.1437 -1.87547,-0.12678 -1.87547,-0.13854 -1.87547,-0.25079 -1.87547,-0.20183 -1.87547,0.11071 -1.87547,0.15615 -1.87547,-0.005 -1.87547,-0.15103 -1.87546,-0.328 -1.87548,0.10616 -1.87547,0.0798 -1.87547,0.007 -1.87546,0.10345 -1.87548,0.12442 -1.87547,-0.41245 -1.87546,0.35554 -1.87547,0.14377 -1.87547,-0.40816 -1.87547,0.23622 -1.87547,-0.49864 -1.87547,0.008 -1.87547,-0.0576 -1.87547,-0.38025 -1.87547,-0.45023 -1.87547,0.20962 -1.87547,-0.55701 -1.87547,0.0389 -1.87547,-0.16747 -1.87547,0.0657 -1.87547,-0.4843 -1.87547,-0.33736 -1.87547,-0.76166 -1.87547,-0.14264 -1.87547,0.071 -1.87547,-0.74577 -1.87547,-0.16748 -1.87547,0.70125 -1.87547,-0.84492 -1.87547,-0.55057 -1.87547,0.33049 -1.87547,-0.5947 -1.87547,-0.19778 -1.87547,-1.28192 -1.87547,-0.67279 -1.87547,-0.19229 -1.87547,-0.56198 -1.87547,-0.81114 -1.87547,0.43379 -1.87547,-1.43375 -1.87547,-1.71169 -1.87547,-0.31394 -1.87547,0.13659 -1.87547,-1.10623 -1.87547,-0.80635 -1.87547,-0.77404 -1.87547,-1.12475 -1.87547,-1.59173 -1.87547,-1.82738 -1.87547,-1.17494 -1.87547,-0.74838 -1.87547,-2.60305 -1.87547,-1.87522 -1.87547,-0.59417 -1.87547,-0.54188 -1.87547,-2.2417 -1.87547,-1.39584 -1.87547,-2.04881 -1.87547,-3.18516 -1.87547,-1.61543 -1.87547,-1.70985 -1.87547,-1.12991 -1.87547,-2.4177 -1.87547,-1.83553 -1.87547,-2.92638 -1.87547,-2.94233 -1.87547,-3.47714 -1.87547,-1.8483 -1.87547,-2.16117 -1.87547,-3.5833 -1.87547,-1.56713 -1.87547,-1.48387 -1.87547,-2.86419 -1.87547,-0.69586 -1.87547,-3.00319 -1.87546,-5.19935 -1.87547,-3.30163 -1.87547,-5.28518 -1.87547,-3.94176 -1.87547,-3.59431 -1.87547,-6.84162 -1.87547,-3.00159 -1.87547,-4.6718 -1.87547,-5.84762 -1.87547,-3.3197 -1.87547,-3.35135 -1.87547,-5.76359 -1.87547,-3.87053 -1.87547,-5.8556 -1.87547,-4.05805 -1.87547,-3.37543 -1.87547,-4.13867 -1.87547,-4.63682 -1.87547,-4.30143 -1.87547,-2.3736 -1.87547,-3.2888 -1.87547,-3.38603 -1.87547,-4.91439 -1.87547,-1.45724 -1.87547,-4.38429 -1.87547,-3.72824 -1.87547,-1.5446 -1.87547,-3.39083 -1.87547,-3.16361 -1.87547,-1.93242 -1.87547,-2.89089 -1.87547,-1.30354 -1.87547,-2.07942 -1.87547,-2.06189 -1.87547,-1.70798 -1.87547,-1.41757 -1.87547,-1.25233 -1.87547,-1.38407 -1.87547,-1.16682 -1.87547,-1.14024 -1.87547,-1.31076 -1.87547,-0.73606 -1.87547,0.002 -1.87547,-0.83203 -1.87547,-0.25401 -1.87547,0.0503 -1.87547,-0.52028 -1.87547,-0.2255 -1.87547,-0.21001 -1.87547,2e-4 -1.87547,-0.0974 -1.87547,0.33234 -1.875467,-0.80396 -1.87547,0.51647 -1.87547,-0.97805 -1.875469,0.80505 -1.87547,-0.54273 -1.87547,1.25479 -1.87547,-2.83228 -1.87547,-0.46082 -1.87547,-0.33167 z"
           style="fill:#2ca02c;fill-opacity:0.1;fill-rule:nonzero;stroke:#2ca02c;stroke-width:0.30000001;stroke-linecap:butt;stroke-linejoin:round;stroke-miterlimit:10;stroke-dasharray:none;stroke-opacity:0.1"
           id="path218"
           inkscape:connector-curvature="0" /></g></g><g
       id="g220"><g
         id="g222"
         clip-path="url(#clipPath226)"><path
           d="m 83.782964,107.37939 v 0 h 1.87547 1.87547 1.87547 1.87547 1.87547 l 1.875469,0.10175 1.87547,0.15102 1.87547,-0.0555 1.875467,0.13075 1.87547,0.10877 1.87547,0.11638 1.87547,0.11345 1.87547,0.057 1.87547,0.0712 1.87547,0.13806 1.87547,0.0214 1.87547,0.14087 1.87547,0.31262 1.87547,0.25655 1.87547,0.36016 1.87547,0.0142 1.87547,0.3207 1.87547,0.0408 1.87547,0.52611 1.87547,0.0573 1.87547,0.42674 1.87547,0.50042 1.87547,0.29184 1.87547,0.51668 1.87547,-0.0244 1.87547,0.30859 1.87547,0.47058 1.87547,-0.11327 1.87547,0.18822 1.87547,0.29306 1.87547,0.28764 1.87547,0.17636 1.87547,-0.0597 1.87547,0.017 1.87547,0.0165 1.87547,0.23213 1.87547,0.0383 1.87547,0.48354 1.87547,0.47637 1.87547,-0.41061 1.87547,1.1259 1.87547,0.52177 1.87547,0.50878 1.87547,0.001 1.87547,0.42214 1.87547,0.2321 1.87547,0.78249 1.87547,0.70546 1.87547,0.83066 1.87547,0.31938 1.87547,0.47548 1.87547,1.57386 1.87547,0.45894 1.87547,0.45041 1.87547,0.091 1.87546,1.64798 1.87547,-0.87237 1.87547,0.95763 1.87547,0.78242 1.87547,0.85577 1.87547,0.20882 1.87547,0.0629 1.87547,-0.32757 1.87547,1.84809 1.87547,0.91341 1.87547,0.0736 1.87547,-0.27425 1.87547,2.29332 1.87547,0.81022 1.87547,-0.0231 1.87547,1.1682 1.87547,0.27372 1.87547,1.89397 1.87547,0.38852 1.87547,3.12588 1.87547,1.19146 1.87547,0.0698 1.87547,2.8501 1.87547,0.99071 1.87547,2.79042 1.87547,1.84014 1.87547,-1.54382 1.87547,2.36437 1.87547,2.99503 1.87547,1.82138 1.87547,2.13701 1.87547,2.94964 1.87547,-1.67029 1.87547,3.58405 1.87547,-0.84059 1.87547,4.10706 1.87547,1.93316 1.87547,0.63389 1.87547,0.651 1.87547,-1.305 1.87547,3.83043 1.87547,1.79225 1.87547,2.81551 1.87547,1.80502 1.87547,4.00316 1.87547,-3.06733 1.87547,3.82606 1.87547,4.39699 1.87547,-0.79119 1.87547,5.05039 1.87547,3.70224 1.87547,0.37137 1.87547,1.31185 1.87547,-0.69273 1.87547,4.77999 1.87547,-0.98946 1.87547,2.31263 1.87547,2.49366 1.87547,1.88934 1.87547,1.65202 1.87547,3.244 1.87547,-0.24004 1.87547,3.38067 1.87547,-0.12513 1.87547,6.08609 1.87547,4.59223 1.87547,-1.66671 1.87547,3.33042 1.87547,2.1539 1.87546,2.39238 1.87547,2.15531 1.87548,4.95956 1.87546,-2.46455 1.87547,5.71021 1.87547,0.86161 1.87548,3.12871 1.87546,0.85069 1.87547,0.33559 1.87547,-0.38198 1.87547,0.2679 1.87547,5.40077 1.87547,2.91508 1.87547,2.5333 1.87547,-1.46829 1.87547,3.81147 1.87547,2.36962 1.87547,2.96573 1.87547,3.61898 1.87547,1.85744 1.87547,0.25086 1.87547,3.66797 1.87547,1.91161 1.87547,0.48047 1.87547,-1.20614 1.87547,6.11266 1.87547,0.76106 1.87547,1.21706 1.87547,-0.61049 1.87547,2.71749 1.87547,0.46835 1.87547,-2.46633 1.87547,0.85455 1.87547,3.20783 1.87547,3.58426 1.87547,-0.0806 1.87547,1.5861 1.87547,0.257 1.87547,2.59455 1.87547,2.47481 1.87547,0.31714 1.87547,-2.2946 1.87547,1.42309 1.87547,1.47574 1.87547,0.78256 1.87547,2.57514 1.87547,0.99707 1.87547,1.57864 1.87547,2.91942 1.87547,-0.15263 1.87547,0.3584 1.87547,0.9145 1.87547,0.7495 1.87547,0.45678 1.87547,-0.58009 1.87547,1.31561 1.87547,1.89342 1.87547,-0.27369 1.87547,0.98428 1.87547,0.0201 1.87547,0.88668 1.87547,-0.47939 1.87547,-0.58715 1.87547,0.1107 1.87547,-0.7925 1.87547,-0.31312 1.87547,0.69615 1.87547,1.82579 1.87547,-0.66972 1.87546,0.36205 1.87547,1.57262 1.87547,0.0324 1.87548,-1.04167 1.87546,0.15668 1.87547,-0.22877 1.87547,1.4516 1.87547,-0.17207 1.87547,0.0366 1.87547,-0.44509 1.87547,0.26271 1.87547,-0.31752 1.87547,-1.08189 1.87547,0.24476 1.87547,-0.44441 1.87547,1.59903 1.87547,-0.38875 1.87547,0.65008 1.87547,0.62468 1.87547,0.57332 1.87547,0.643 1.87547,-0.0874 1.87547,0.35277 1.87547,-0.79902 1.87547,-1.75102 1.87547,1.84556 1.87547,-0.95683 1.87547,0.75803 1.87547,-0.10502 1.87547,0.54579 1.87547,0.3618 1.87547,-0.3183 1.87547,0.14334 1.87547,0.0669 1.87547,-0.97115 1.87547,0.62183 1.87547,-0.73655 1.87547,0.95389 1.87547,-1.06352 1.87547,0.10294 1.87547,-0.17111 1.87547,0.56599 1.87547,-0.32965 1.87547,0.91954 1.87547,-0.56787 1.87547,0.0752 v 2.54088 0 l -1.87547,-0.0982 -1.87547,-0.003 -1.87547,-0.22569 -1.87547,0.29368 -1.87547,-0.41783 -1.87547,0.33849 -1.87547,-0.30379 -1.87547,0.54469 -1.87547,-0.35172 -1.87547,10e-4 -1.87547,-0.47669 -1.87547,0.86693 -1.87547,-0.32447 -1.87547,-0.0259 -1.87547,-0.23318 -1.87547,0.29047 -1.87547,0.0531 -1.87547,-0.1911 -1.87547,-0.3715 -1.87547,0.12359 -1.87547,-0.34234 -1.87547,0.56921 -1.87547,0.0366 -1.87547,0.0694 -1.87547,0.0884 -1.87547,-0.3523 -1.87547,0.01 -1.87547,0.0348 -1.87547,-0.59343 -1.87547,-0.0731 -1.87547,-0.11578 -1.87547,0.12618 -1.87547,-0.12218 -1.87547,0.35325 -1.87547,0.346 -1.87547,-0.30381 -1.87547,-0.49855 -1.87547,0.21957 -1.87547,0.3133 -1.87547,-0.18265 -1.87547,-0.37622 -1.87546,0.12687 -1.87548,0.33052 -1.87547,0.15214 -1.87547,-0.59317 -1.87546,-0.30603 -1.87547,-0.51249 -1.87547,-0.14409 -1.87547,0.13847 -1.87547,-0.57333 -1.87547,0.56123 -1.87547,0.51756 -1.87547,0.17088 -1.87547,0.61936 -1.87547,-0.42366 -1.87547,0.0592 -1.87547,-0.0746 -1.87547,-0.11559 -1.87547,-0.58148 -1.87547,0.29878 -1.87547,-0.4861 -1.87547,0.43535 -1.87547,0.17886 -1.87547,-0.0788 -1.87547,-8.8e-4 -1.87547,0.0816 -1.87547,-0.81969 -1.87547,-0.37228 -1.87547,-0.19288 -1.87547,0.19361 -1.87547,-0.12696 -1.87547,0.2357 -1.87547,-0.2818 -1.87547,0.32683 -1.87547,0.28003 -1.87547,-0.13861 -1.87547,-0.36109 -1.87547,-0.31283 -1.87547,-0.43992 -1.87547,-0.15406 -1.87547,0.004 -1.87547,0.39296 -1.87547,-0.52752 -1.87547,0.71806 -1.87547,-0.55272 -1.87547,-0.006 -1.87547,-0.14935 -1.87547,0.17177 -1.87547,-0.63986 -1.87547,-0.67832 -1.87547,-0.5105 -1.87547,-0.0831 -1.87547,-0.46208 -1.87547,-0.73631 -1.87547,0.58248 -1.87547,-0.2086 -1.87547,-0.35378 -1.87547,0.73555 -1.87547,-0.2373 -1.87547,-1.01627 -1.87547,-1.21166 -1.87547,1.75628 -1.87547,0.18736 -1.87547,-10e-4 -1.87547,0.17284 -1.87547,-0.1676 -1.87547,-0.61198 -1.87546,-0.11949 -1.87548,-0.5758 -1.87547,-0.96773 -1.87547,0.0442 -1.87546,-0.58972 -1.87548,-1.35311 -1.87547,-0.40894 -1.87546,0.23168 -1.87547,-1.74733 -1.87547,0.19217 -1.87547,0.0495 -1.87547,-1.55509 -1.87547,-2.10061 -1.87547,-1.8709 -1.87547,-1.35889 -1.87547,3.04606 -1.87547,-4.12594 -1.87547,1.98496 -1.87547,-3.12665 -1.87547,-1.78764 -1.87547,0.42159 -1.87547,-1.66051 -1.87547,-1.46767 -1.87547,-1.49486 -1.87547,-1.81233 -1.87547,-0.26984 -1.87547,-0.7152 -1.87547,-2.9769 -1.87547,-1.85667 -1.87547,-1.00689 -1.87547,-2.14531 -1.87547,0.4235 -1.87547,-2.96116 -1.87547,-1.00058 -1.87547,-1.81053 -1.87547,-2.76247 -1.87547,-3.41467 -1.87547,-3.16893 -1.87547,-0.70841 -1.87547,-1.79108 -1.87547,-2.56852 -1.87547,-3.59386 -1.87547,-1.66901 -1.87547,-0.84182 -1.87547,-7.01427 -1.87547,1.15242 -1.87547,-7.03187 -1.87547,-3.00762 -1.87547,1.09442 -1.87547,-2.51305 -1.87547,-3.38983 -1.87547,-3.09187 -1.87547,-4.81478 -1.87547,-3.0524 -1.87547,-3.70964 -1.87547,-1.87853 -1.87547,-3.45444 -1.87547,-3.46166 -1.87547,-4.05158 -1.87547,-5.60541 -1.87547,-1.44838 -1.87547,-2.3968 -1.87547,-5.87672 -1.87547,-4.49238 -1.87547,-4.10982 -1.87547,-2.52578 -1.87547,-2.75269 -1.87547,-3.55421 -1.87547,-2.39929 -1.87547,-3.10822 -1.87547,-0.98328 -1.87547,-1.03495 -1.87547,-1.25901 -1.87547,-2.94443 -1.87547,-1.93011 -1.87547,-0.23089 -1.87546,-2.2895 -1.87547,-0.14036 -1.87547,-2.83684 -1.87547,0.48557 -1.87547,-5.06676 -1.87547,0.75257 -1.87547,-2.5718 -1.87547,-1.13429 -1.87547,-3.28836 -1.87547,-2.85496 -1.87547,-2.57246 -1.87547,-0.68961 -1.87547,-1.97366 -1.87547,-2.05237 -1.87547,-0.92667 -1.87547,-1.49486 -1.87547,-0.56721 -1.87547,-1.87349 -1.87547,-1.71296 -1.87547,-0.76416 -1.87547,-0.8618 -1.87547,-1.18111 -1.87547,-0.57161 -1.87547,-0.37062 -1.87547,-1.41648 -1.87547,-0.52556 -1.87547,-0.60551 -1.87547,-0.89366 -1.87547,-0.0492 -1.87547,-0.26745 -1.87547,-0.11683 -1.87547,-0.274 -1.87547,-0.75887 -1.87547,-0.43381 -1.87547,-0.54953 -1.87547,0.0915 -1.87547,-0.51444 -1.87547,-0.43934 -1.87547,-0.48328 -1.87547,-0.43025 -1.87547,-1.01158 -1.87547,-0.35303 -1.87547,-0.50517 -1.87547,-0.88908 -1.87547,-0.61996 -1.87547,-0.68919 -1.87547,-0.7797 -1.87547,-0.16578 -1.87547,-0.56886 -1.87547,0.0529 -1.87547,-0.47378 -1.87547,0.0922 -1.875467,-0.57472 -1.87547,0.31411 -1.87547,-0.94725 -1.875469,0.59305 -1.87547,-1.18888 -1.87547,0.12606 -1.87547,-1.14172 -1.87547,-0.0867 h -1.87547 z"
           style="fill:#1f77b4;fill-opacity:0.1;fill-rule:nonzero;stroke:#1f77b4;stroke-width:0.30000001;stroke-linecap:butt;stroke-linejoin:round;stroke-miterlimit:10;stroke-dasharray:none;stroke-opacity:0.1"
           id="path228"
           inkscape:connector-curvature="0" /></g></g><g
       id="g230"><g
         id="g232"
         clip-path="url(#clipPath236)"><path
           d="m 82.845229,107.37939 h 1.87547 l 0.937735,0.35515 h 0.937735 l 0.937735,0.27004 h 0.937735 l 0.937735,0.13571 0.937735,-0.29715 h 0.937735 l 0.937735,0.21205 1.875469,0.0903 h 0.937735 l 1.87547,0.49411 1.87547,0.0393 0.937735,0.38496 0.937732,0.12259 0.93774,0.28807 0.93773,-0.32467 2.81321,0.372 0.93773,-0.1052 2.81321,0.60917 0.93773,-0.11189 1.87547,0.16108 0.93774,0.32123 1.87547,0.28459 0.93773,0.13149 0.93774,0.45929 0.93773,-0.0503 2.81321,1.58217 0.93773,0.20288 0.93774,-0.0348 1.87547,1.29663 0.93773,0.51753 0.93774,0.36584 1.87547,1.74371 1.87547,2.63788 0.93773,1.93814 0.93774,0.86739 2.8132,4.46331 1.87547,4.15617 0.93773,0.80869 0.93774,1.98275 0.93773,1.18064 1.87547,1.45443 2.81321,4.62062 1.87547,1.93345 0.93773,1.10502 0.93774,1.81463 0.93773,0.51283 2.81321,3.29723 0.93773,0.74435 0.93774,1.0792 0.93773,1.77517 3.75094,4.37455 2.81321,5.22551 0.93773,2.71442 0.93774,1.06652 0.93773,1.894 0.93774,0.43675 0.93773,1.00358 0.93774,0.62507 0.93773,1.5831 0.93774,0.90497 0.93773,0.37382 0.93774,0.87726 0.93773,1.13273 0.93774,0.56027 2.8132,3.16807 0.93774,0.63494 0.93773,0.26251 0.93774,0.57154 0.93773,1.04538 0.93774,0.37993 0.93773,1.43047 2.81321,2.88161 0.93773,1.41451 0.93774,0.96226 0.93773,1.21304 0.93774,0.84157 0.93773,1.19707 0.93774,0.38603 1.87547,2.68953 1.87547,1.30086 1.87547,0.37194 0.93773,-0.15075 0.93774,0.77488 0.93773,0.37429 3.75094,0.1207 0.93773,0.53819 0.93774,0.20147 0.93773,0.56354 0.93774,-0.17 1.87547,0.0446 0.93773,0.48464 0.93774,-0.29867 0.93773,0.0803 0.93774,0.76455 0.93773,-0.0517 1.87547,0.38603 0.93774,0.58891 0.93773,0.88946 1.87547,0.6711 0.93774,-0.26581 0.93773,0.20899 0.93774,0.40528 0.93773,0.20757 0.93774,-0.19113 0.93773,0.59689 2.81321,-0.031 0.93773,0.5194 0.93774,0.15544 0.93773,0.53772 0.93774,-0.17047 0.93773,0.29586 2.81321,0.16766 0.93773,0.59031 0.93774,0.39778 0.93773,-0.51893 1.87547,1.20552 0.93774,0.7899 0.93773,0.48419 0.93774,0.19442 0.93773,0.84438 0.93774,0.32358 0.93773,1.02941 0.93774,0.69645 3.75094,1.83341 1.87547,0.27238 1.87547,1.52159 1.87547,0.98433 2.8132,1.53708 0.93774,0.77159 0.93773,0.41655 0.93774,-0.0357 0.93773,-0.41561 0.93774,-0.17893 1.87546,0.19443 0.93774,-0.47339 0.93773,0.433 0.93774,0.12069 1.87547,0.88336 0.93773,0.13056 2.81321,-1.49857 0.93774,-0.0432 0.93773,0.57669 0.93773,0.22307 0.93774,0.41938 0.93773,0.12304 0.93774,0.36348 0.93773,0.13526 0.93774,0.009 1.87547,0.50297 0.93773,-0.23294 1.87547,0.24515 0.93774,0.33108 0.93773,0.19818 0.93774,-0.42265 1.87547,-0.52505 0.93773,-0.007 0.93774,0.15825 0.93773,0.78286 1.87547,0.60347 1.87547,0.16953 0.93774,-0.51799 0.93773,-0.24232 1.87547,0.7002 0.93774,0.13244 0.93773,-0.005 0.93774,0.16437 0.93773,-0.19724 0.93774,0.0413 0.93773,-0.31888 0.93774,0.13714 0.93773,-0.0916 0.93774,0.26863 0.93773,-0.31089 2.81321,-0.19865 0.93773,0.1423 0.93774,-0.31231 0.93773,0.1113 0.93774,0.42079 0.93773,0.14417 0.93774,-0.12257 0.93773,0.53302 1.87547,-0.27614 0.93774,0.63305 0.93773,0.37664 0.93774,0.24656 2.8132,0.0578 0.93774,-0.33484 0.93773,-0.60019 0.93773,0.37102 0.93774,-0.34752 0.93773,0.0296 0.93774,0.54101 0.93774,-4.8e-4 0.93773,-0.41092 0.93773,0.0385 1.87547,-0.77442 0.93774,0.008 0.93773,0.29915 0.93774,0.59548 0.93774,-0.47573 0.93773,-0.0845 0.93773,0.36678 0.93774,0.0192 0.93773,0.33438 0.93774,0.46539 1.87547,0.12492 0.93773,0.25172 0.93774,0.069 1.87547,1.37177 0.93773,0.96649 0.93774,0.43064 0.93773,-0.26627 0.93774,0.3015 0.93773,0.86505 0.93774,-0.2428 0.93773,0.67015 0.93774,0.34236 0.93773,0.4668 0.93774,0.67391 1.87547,0.30244 0.93773,-0.52973 0.93774,0.50156 0.93773,0.7697 0.93774,0.94442 0.93773,0.19348 0.93774,-0.41515 0.93773,-0.22541 0.93774,0.0596 0.93773,0.59079 0.93774,0.19395 0.93773,-0.73965 0.93774,-0.14606 2.8132,0.80588 0.93774,0.4344 0.93773,0.0498 0.93774,-0.35222 0.93773,0.29727 1.87547,0.28083 0.93774,-0.49733 0.93773,-0.039 0.93774,1.33045 0.93773,0.25406 0.93774,-0.12304 0.93773,0.0578 0.93774,0.80635 0.93773,0.61521 1.87547,0.17705 1.87547,0.6678 0.93773,0.0503 0.93774,-0.12962 1.87547,0.3433 0.93773,-0.61098 0.93774,-0.42971 0.93773,-0.16061 0.93774,0.0695 0.93773,0.27097 0.93774,0.52223 0.93773,0.0272 0.93774,-0.34377 0.93773,0.41703 0.93774,0.0855 0.93773,-0.34094 1.87547,-0.0944 0.93774,-0.33109 1.87547,0.518 0.93773,0.25876 0.93774,-1.26329 0.93773,-0.10754 0.93774,1.16936 1.87547,0.0982 0.93773,-1.11911 0.93774,-0.50626 0.93773,-0.0409 1.87547,1.79068 1.87547,-1.01157 0.93774,0.23059 0.93773,0.0517 0.93774,-0.12445 0.93773,0.86974 0.93774,0.60863 0.93773,0.0672 0.93774,-0.77676 1.87547,-0.44895 0.93773,0.31793 0.93774,0.51565 0.93773,-0.18598 0.93774,0.41609 0.93773,0.0662 0.93774,-0.75563 0.93773,0.12539 1.87547,-0.42923 0.93774,0.10754 0.93773,0.96883 0.93774,-0.1592 0.93773,-0.73731 0.93774,-0.20429 0.93773,1.01204 0.93774,-0.36348 0.93773,0.17423 0.93774,-0.27756 1.87547,1.25438 0.93773,0.28647 1.87547,-0.11412 0.93774,-0.18081 1.87547,0.688 0.93773,0.18644 1.87547,-0.0615 0.93773,-0.60488 0.93774,-0.1052 0.93773,0.18269 0.93774,-0.17048 0.93774,0.79649 0.93773,0.15639 0.93773,-0.30949 2.81321,0.0582 0.93773,0.35973 0.93774,-0.11975 1.87547,-0.84392 0.93773,-1.10503 0.93774,-0.19254 0.93773,0.45835 0.93774,1.22196 0.93773,0.63352 0.93774,0.38463 0.93773,0.59971 0.93774,0.35644 0.93773,0.56027 0.93774,0.1916 1.87547,-0.56496 0.93773,0.67955 0.93774,0.28976 0.93773,0.42266 0.93774,0.27379 1.87547,2.35751 0.93773,0.87679 1.87547,0.55415 0.93774,0.0578 0.93773,-0.21227 0.93774,0.53349 0.93773,0.88243 0.93774,0.71007 0.93773,0.18785 0.93774,-0.57717 0.93773,-0.0465 0.93774,0.65794 1.87547,-0.2226 0.93773,0.47713 0.93774,-0.39025 0.93773,0.0629 1.87547,0.53959 0.93774,0.44709 0.93773,-0.0686 1.87547,0.95756 0.93774,-0.26674 2.8132,-0.0535 0.93774,-0.49875 0.93773,-0.0972 1.87547,0.87209 0.93774,-0.42971 1.87546,0.30761 0.93774,0.27613 0.93774,0.40952 1.87546,-0.14652 0.93774,0.0498 0.93773,-0.0995 0.93774,-0.59408 0.93773,-0.11835 1.87547,0.71337 2.81321,0.28552 1.87547,0.96085 0.93773,-0.31088 0.93774,-0.70068 1.87547,0.18503 0.93773,0.45271 0.93774,0.62554 0.93773,0.15921 v 0"
           style="fill:none;stroke:#ff7f0e;stroke-width:2;stroke-linecap:round;stroke-linejoin:round;stroke-miterlimit:10;stroke-dasharray:none;stroke-opacity:1"
           id="path238"
           inkscape:connector-curvature="0" /></g></g><g
       id="g240"><g
         id="g242"
         clip-path="url(#clipPath246)"><path
           d="m 83.782964,107.37939 h 3.75094 l 1.87547,1.59979 1.87547,-0.52406 1.87547,0.16677 1.875469,-0.28466 1.87547,0.73858 1.87547,-0.26113 1.875467,0.7516 1.87547,-0.18042 1.87547,0.14184 1.87547,-0.0567 1.87547,0.19852 1.87547,-0.1144 1.87547,0.2381 1.87547,-0.0564 1.87547,0.1794 1.87547,0.59173 1.87547,0.069 5.62641,2.00342 1.87547,0.15779 1.87547,1.14823 1.87547,0.64151 3.75094,1.64509 1.87547,1.18674 1.87547,0.89416 1.87547,0.66546 1.87547,2.06587 1.87547,1.8367 1.87547,1.64369 1.87547,2.16309 1.87547,1.84985 1.87547,2.64492 1.87547,2.38334 1.87547,2.05225 3.75094,6.0436 1.87547,1.96631 1.87547,2.53879 1.87547,3.42497 3.75094,6.08303 3.75094,8.50114 1.87547,3.32587 1.87547,4.85263 1.87547,4.40648 1.87547,3.9965 1.87547,4.43513 1.87547,5.35042 5.62641,13.25279 1.87547,6.03702 1.87547,4.31209 1.87547,5.93041 3.75093,10.62947 1.87547,4.48913 1.87547,2.17671 1.87547,1.9696 1.87547,2.66793 1.87547,1.5817 1.87547,3.4245 1.87547,2.7844 1.87547,3.01545 1.87547,3.95188 1.87547,2.95817 3.75094,3.22444 3.75094,4.10686 1.87547,2.1119 1.87547,2.71207 1.87547,4.62533 1.87547,2.14243 1.87547,0.80869 1.87547,2.51389 3.75094,1.51595 1.87547,2.149 1.87547,2.71537 1.87547,1.44738 1.87547,0.71289 1.87547,1.94049 3.75094,3.2991 1.87547,1.23512 1.87547,1.00498 1.87547,1.71836 1.87547,-0.19959 3.75094,2.47022 1.87547,1.96444 1.87547,-0.34658 1.87547,1.41028 1.87547,0.82372 1.87547,0.65983 1.87547,1.11253 1.87547,1.38304 3.75094,1.81369 1.87547,-1e-5 1.87547,1.02143 1.87547,1.54836 1.87547,-0.52692 3.75094,0.83405 1.87547,0.18878 1.87547,-0.15684 1.87547,1.04538 1.87547,0.6044 1.87547,0.20899 1.87547,-0.0188 1.87547,0.5025 1.87547,0.0728 1.87547,0.54947 1.87547,-0.0695 3.75094,1.40793 1.87547,0.0949 1.87547,-0.15311 1.87547,0.48889 1.87547,-0.24515 1.87547,0.47057 1.87547,-0.11835 1.87546,-0.62695 1.87547,0.64573 1.87548,0.12399 1.87546,-0.0761 1.87547,0.20288 1.87547,-0.0225 1.87548,-0.33484 1.87546,0.572 1.87547,0.26628 5.62641,-0.19114 1.87547,0.33249 1.87547,0.17799 3.75094,0.18175 1.87547,0.18784 1.87547,-0.023 1.87547,0.17516 1.87547,-0.26675 5.62641,0.15873 1.87547,-0.39729 1.87547,0.55931 1.87547,-0.0254 1.87547,0.16061 1.87547,0.32732 3.75094,-0.11318 1.87547,-0.0686 1.87547,0.1484 1.87547,-0.0953 1.87547,0.0653 1.87547,-0.37288 1.87547,0.25782 1.87547,0.0324 1.87547,-0.33108 1.87547,0.0648 3.75094,0.54898 1.87547,0.19396 1.87547,-0.16766 3.75094,0.12492 1.87547,0.23386 3.75094,-0.0333 1.87547,-0.18455 1.87547,0.11553 1.87547,-0.31043 1.87547,0.1747 1.87547,-0.0502 3.75094,0.21415 1.87547,-0.18127 1.87547,0.13102 1.87547,-0.14135 1.87547,0.11786 1.87547,-0.0155 3.75094,0.29539 1.87547,-0.0277 1.87547,0.12914 1.87547,-0.14605 1.87547,0.13666 1.87547,-0.30665 1.87547,0.17422 9.37735,0.0249 1.87546,-0.16859 1.87547,0.10003 1.87547,-0.13572 1.87547,0.0146 1.87547,-0.12867 5.62641,0.40669 1.87547,-0.007 1.87547,-0.19207 1.87547,0.20569 1.87547,0.0503 1.87547,-0.31746 1.87547,0.24091 1.87547,-0.11975 5.62641,0.32779 3.75094,0.0183 1.87547,-0.14183 1.87547,0.12586 1.87547,-0.0916 1.87547,0.12351 7.50188,-0.27991 3.75094,0.2583 1.87547,-0.14699 5.62641,0.16766 3.75094,0.0131 1.87547,-0.12633 1.87547,0.0643 5.62641,-0.13196 1.87547,0.10426 v 0"
           style="fill:none;stroke:#2ca02c;stroke-width:2;stroke-linecap:round;stroke-linejoin:round;stroke-miterlimit:10;stroke-dasharray:none;stroke-opacity:1"
           id="path248"
           inkscape:connector-curvature="0" /></g></g><g
       id="g250"><g
         id="g252"
         clip-path="url(#clipPath256)"><path
           d="m 83.782964,107.37939 h 3.75094 l 3.75094,0.317 1.87547,0.32286 1.875469,-0.0929 1.87547,0.47481 1.87547,-0.12211 1.875467,0.34984 1.87547,0.0508 1.87547,0.25652 1.87547,0.0282 3.75094,0.38509 1.87547,0.37288 3.75094,0.34471 1.87547,0.6678 5.62641,1.2539 1.87547,0.4917 1.87547,0.2705 3.75094,0.83969 5.62641,1.05055 1.87547,1.01626 1.87547,-0.0648 1.87547,0.286 1.87547,0.48513 1.87547,-0.24609 1.87547,0.71853 3.75094,1.08624 7.50188,0.56026 3.75094,0.80494 1.87547,0.65371 1.87547,1.01486 1.87547,0.21039 1.87547,1.06276 1.87547,0.59032 1.87547,0.97588 1.87547,0.74294 1.87547,0.90638 1.87547,1.36942 1.87547,1.18862 1.87547,1.43 1.87547,0.85002 1.87547,1.20646 1.87547,0.95428 1.87547,1.84515 1.87547,1.175 3.75094,1.37741 1.87546,1.82355 1.87547,0.0484 1.87547,1.62584 1.87547,1.46757 1.87547,1.8104 1.87547,1.47603 1.87547,0.77535 1.87547,1.23699 1.87547,0.62366 1.87547,1.57136 1.87547,1.88366 3.75094,5.03156 1.87547,1.95927 1.87547,2.79989 1.87547,2.54724 1.87547,1.8508 3.75094,5.87076 3.75094,4.48867 1.87547,1.73761 1.87547,3.39772 1.87547,2.24762 1.87547,2.8154 1.87547,3.49025 1.87547,2.18798 5.62641,7.21952 1.87547,2.79615 1.87547,2.19314 1.87547,3.12675 1.87547,1.87756 1.87547,3.01076 1.87547,0.804 1.87547,1.38445 1.87547,1.94894 3.75094,5.01699 1.87547,2.13538 1.87547,1.84139 1.87547,1.492 3.75094,4.4309 3.75094,4.32054 1.87547,2.65479 3.75094,4.3135 1.87547,2.71911 1.87547,2.12177 3.75094,2.46599 1.87547,1.99544 3.75094,3.09435 1.87547,2.51953 1.87547,1.95927 1.87547,1.25859 1.87547,2.39602 1.87547,0.0719 1.87547,1.99918 1.87547,1.70474 1.87547,3.58652 1.87547,2.65102 1.87547,0.41562 1.87547,1.0252 1.87547,3.07274 1.87546,1.1703 1.87547,1.91983 1.87548,2.64116 1.87546,1.48871 1.87547,2.04474 1.87547,1.38867 1.87548,1.97008 1.87546,0.98669 1.87547,1.31588 1.87547,1.04491 1.87547,0.86599 1.87547,1.16843 1.87547,0.44378 1.87547,-0.38039 1.87547,1.91606 1.87547,2.10628 1.87547,0.96507 1.87547,0.1174 1.87547,0.73825 1.87547,0.90638 1.87547,0.74435 3.75094,2.67169 1.87547,0.45178 1.87547,0.84579 1.87547,1.06182 1.87547,0.3973 1.87547,0.0949 1.87547,0.49968 1.87547,0.0958 1.87547,1.22854 1.87547,-1.02425 1.87547,-0.11928 3.75094,2.54113 1.87547,0.80822 1.87547,-0.0113 1.87547,0.15311 1.87547,0.82137 1.87547,0.42642 1.87547,-0.18832 1.87547,-0.54618 1.87547,0.44944 1.87547,-0.0601 1.87547,0.20194 1.87547,0.51095 1.87547,0.13619 1.87547,0.4405 1.87547,0.87445 1.87547,0.15122 3.75094,-0.13807 1.87547,0.1376 1.87547,-0.30338 1.87547,-0.69879 1.87547,0.56683 1.87547,0.85847 1.87547,-0.0888 1.87547,0.57763 1.87547,-0.0911 1.87547,0.27849 1.87547,-0.79601 3.75094,-0.29305 1.87547,-0.95569 1.87547,0.21321 1.87547,0.52035 1.87547,0.65371 1.87547,0.20053 1.87546,0.60395 1.87547,0.76172 1.87547,-0.25876 1.87548,-0.48044 1.87546,-0.12303 1.87547,0.36068 1.87547,0.48746 1.87547,-0.48512 3.75094,-0.1437 1.87547,0.85988 1.87547,-0.51706 1.87547,-0.6833 1.87547,0.46258 1.87547,-0.30103 1.87547,0.19865 1.87547,-0.0347 1.87547,0.80118 1.87547,-0.0958 1.87547,0.24655 1.87547,0.48559 1.87547,-0.0385 1.87547,0.0798 1.87547,-0.34142 1.87547,-0.98996 1.87547,0.99842 1.87547,-0.12727 1.87547,0.40951 1.87547,-0.0357 1.87547,0.15826 1.87547,-0.26158 1.87547,0.0192 3.75094,0.37054 1.87547,-0.73778 1.87547,0.68987 1.87547,-0.16483 1.87547,0.20851 1.87547,-0.6786 1.87547,0.39964 1.87547,-0.44614 1.87547,0.657 1.87547,-0.72603 1.87547,0.71993 1.87547,-0.23669 1.87547,0.13994 v 0"
           style="fill:none;stroke:#1f77b4;stroke-width:2;stroke-linecap:round;stroke-linejoin:round;stroke-miterlimit:10;stroke-dasharray:none;stroke-opacity:1"
           id="path258"
           inkscape:connector-curvature="0" /></g></g><g
       id="g260"><text
         transform="matrix(1,0,0,-1,272.10579,338.4)"
         style="font-variant:normal;font-weight:normal;font-size:15px;font-family:'Liberation Sans';-inkscape-font-specification:LiberationSans;writing-mode:lr-tb;fill:#262626;fill-opacity:1;fill-rule:nonzero;stroke:none"
         id="text264"><tspan
           x="0 10.005 18.344999 25.844999 36.674999 45.014999 50.009998 55.005001 58.334999 66.675003 75.014999"
           y="0"
           sodipodi:role="line"
           id="tspan262">KeyCorridor</tspan></text>
<path
         d="m 73.41761,313.275 h 30"
         style="fill:none;stroke:#ff7f0e;stroke-width:2;stroke-linecap:round;stroke-linejoin:round;stroke-miterlimit:10;stroke-dasharray:none;stroke-opacity:1"
         id="path266"
         inkscape:connector-curvature="0" /><text
         transform="matrix(1,0,0,-1,115.41761,308.025)"
         style="font-variant:normal;font-weight:normal;font-size:15px;font-family:'Liberation Sans';-inkscape-font-specification:LiberationSans;writing-mode:lr-tb;fill:#262626;fill-opacity:1;fill-rule:nonzero;stroke:none"
         id="text270"><tspan
           x="0 10.83 21.66 32.490002 37.485001 47.490002 57.494999"
           y="0"
           sodipodi:role="line"
           id="tspan268">CNN­PPO</tspan></text>
<path
         d="m 73.41761,291.79062 h 30"
         style="fill:none;stroke:#2ca02c;stroke-width:2;stroke-linecap:round;stroke-linejoin:round;stroke-miterlimit:10;stroke-dasharray:none;stroke-opacity:1"
         id="path272"
         inkscape:connector-curvature="0" /><text
         transform="matrix(1,0,0,-1,115.41761,286.54063)"
         style="font-variant:normal;font-weight:normal;font-size:15px;font-family:'Liberation Sans';-inkscape-font-specification:LiberationSans;writing-mode:lr-tb;fill:#262626;fill-opacity:1;fill-rule:nonzero;stroke:none"
         id="text276"><tspan
           x="0 10.83 20.834999 29.174999"
           y="0"
           sodipodi:role="line"
           id="tspan274">HELM</tspan></text>
<path
         d="m 73.41761,270.30625 h 30"
         style="fill:none;stroke:#1f77b4;stroke-width:2;stroke-linecap:round;stroke-linejoin:round;stroke-miterlimit:10;stroke-dasharray:none;stroke-opacity:1"
         id="path278"
         inkscape:connector-curvature="0" /><text
         transform="matrix(1,0,0,-1,115.41761,265.05625)"
         style="font-variant:normal;font-weight:normal;font-size:15px;font-family:'Liberation Sans';-inkscape-font-specification:LiberationSans;writing-mode:lr-tb;fill:#262626;fill-opacity:1;fill-rule:nonzero;stroke:none"
         id="text282"><tspan
           x="0 4.1700001 16.665001 25.004999 33.345001 36.674999 45.014999 50.009998 60.014999 70.019997"
           y="0"
           sodipodi:role="line"
           id="tspan280">Impala­PPO</tspan></text>
</g></g></svg>