<svg id="Ebene_1" data-name="Ebene 1" xmlns="http://www.w3.org/2000/svg" xmlns:xlink="http://www.w3.org/1999/xlink" viewBox="0 0 671.41 371.72">
  <defs>
    <style>
      .cls-1 {
        fill: none;
      }

      .cls-2 {
        clip-path: url(#clip-path);
      }

      .cls-3 {
        fill: #0084bb;
      }
    </style>
    <clipPath id="clip-path" transform="translate(-87 -45.68)">
      <rect class="cls-1" x="87" y="45.68" width="671.41" height="371.67"/>
    </clipPath>
  </defs>
  <title>Machine Learning</title>
  <rect class="cls-1" width="619.87" height="371.72"/>
  <g class="cls-2">
    <path class="cls-3" d="M496.21,199.3H274.39v48.24H496.21Zm0-153.62-110.91,95-110.91-95v58.63l110.91,95,110.91-95ZM188.09,168.2c0,25.67-11.41,36.76-29.79,36.76-15.53,0-27.89-8.24-40.56-22.18L87,217c15.21,18.06,38,33.27,72.57,33.27,24.08,0,44-7,57.67-20.59,13.31-13.31,20.91-33,20.91-59.26V45.7H188.09Zm440.37,82.39c59.57,0,97.28-33,97.28-100.13V45.7h-48.8V152.36c0,35.17-18.06,53.23-47.85,53.23s-47.85-18.69-47.85-54.82V45.7h-48.8V152c0,65.28,36.44,98.55,96,98.55" transform="translate(-87 -45.68)"/>
    <path class="cls-3" d="M743,399.09c-4.07,0-7.15-2.75-7.15-6.82v-.11c0-4,3.08-6.82,7.15-6.82s7.21,2.8,7.21,6.82v.11c0,4-3.14,6.82-7.21,6.82m-1,18.26c5.72,0,10-1.21,12.71-4,2.47-2.48,3.74-6.33,3.74-11.61V379h-8.36v3.85a11.93,11.93,0,0,0-9.52-4.4c-6.76,0-13.09,4.95-13.09,13.75v.11c0,8.74,6.22,13.75,13.09,13.75,4.46,0,7.15-1.82,9.63-4.79v1.43c0,5.28-2.7,8-8.42,8a19.26,19.26,0,0,1-10-2.69l-2.86,6.27a28,28,0,0,0,13,3.08m-47.46-8.91h8.36V392c0-4,2-6,5.22-6s5.06,2,5.06,6v16.45h8.36V389.35c0-6.76-3.68-10.94-10-10.94-4.23,0-6.71,2.25-8.63,4.73V379H694.5Zm-16.23,0h8.36V379h-8.36Zm-.22-32.73h8.8v-7.42h-8.8Zm-34.42,32.73H652V392c0-4,2-6,5.22-6s5.06,2,5.06,6v16.45h8.36V389.35c0-6.76-3.68-10.94-10-10.94-4.23,0-6.71,2.25-8.63,4.73V379h-8.36Zm-23,0H629V397.55c0-7,3.41-10.4,9-10.4h.44v-8.74c-4.95-.22-7.7,2.42-9.4,6.49V379h-8.36ZM599,403.21c-2.7,0-4.57-1.32-4.57-3.57v-.11c0-2.64,2.2-4.07,5.78-4.07a13,13,0,0,1,5.33,1.1V398c0,3-2.64,5.17-6.54,5.17M596.44,409a11.36,11.36,0,0,0,8.91-3.74v3.19h8.08V391.33c0-4-1-7.2-3.19-9.4s-5.39-3.3-10-3.3A26,26,0,0,0,588.85,381l2.09,6.38a21.66,21.66,0,0,1,8.14-1.59c4.18,0,6.32,1.92,6.32,5.39v.49a21,21,0,0,0-7.2-1.21c-7,0-11.88,3-11.88,9.41V400c0,5.83,4.56,9,10.12,9m-35.31-17.6c.66-3.8,2.91-6.27,6.38-6.27s5.72,2.53,6.21,6.27Zm7.2,17.71a14.75,14.75,0,0,0,12-5.5l-4.79-4.24a9.64,9.64,0,0,1-7.15,3,6.83,6.83,0,0,1-7.2-5.78h20.51c.06-.77.11-1.54.11-2.2,0-8.36-4.51-16-14.35-16-8.58,0-14.58,6.93-14.58,15.34v.11c0,9,6.55,15.24,15.4,15.24m-46.58-.66h27.66v-7.7H530.22v-30.8h-8.47Zm-44.33-17.05c.66-3.8,2.91-6.27,6.38-6.27s5.72,2.53,6.21,6.27Zm7.2,17.71a14.75,14.75,0,0,0,12.05-5.5l-4.79-4.24a9.64,9.64,0,0,1-7.15,3,6.83,6.83,0,0,1-7.2-5.78H498c.06-.77.11-1.54.11-2.2,0-8.36-4.51-16-14.35-16-8.58,0-14.58,6.93-14.58,15.34v.11c0,9,6.55,15.24,15.4,15.24m-48.23-.66h8.36V392c0-4,2-6,5.22-6s5.06,2,5.06,6v16.45h8.36V389.35c0-6.76-3.68-10.94-10-10.94-4.23,0-6.71,2.25-8.63,4.73V379h-8.36Zm-16.23,0h8.36V379h-8.36Zm-.22-32.73h8.8v-7.42h-8.8Zm-34.43,32.73h8.36V392c0-4,2-6,5.23-6s5.06,2,5.06,6v16.45h8.36V389.35c0-6.76-3.69-10.94-10-10.94-4.24,0-6.71,2.25-8.64,4.73V368.29h-8.36ZM368,409.1a14.86,14.86,0,0,0,12-5.39l-4.89-4.95c-2,1.92-4,3.13-6.77,3.13-4.56,0-7.48-3.63-7.48-8.14v-.11c0-4.34,3-8,7.15-8,3,0,4.84,1.27,6.71,3.25l5.12-5.5c-2.75-3.08-6.22-4.95-11.77-4.95a15.14,15.14,0,0,0-15.46,15.34v.11A15.05,15.05,0,0,0,368,409.1m-35.59-5.89c-2.69,0-4.56-1.32-4.56-3.57v-.11c0-2.64,2.2-4.07,5.77-4.07a13,13,0,0,1,5.34,1.1V398c0,3-2.64,5.17-6.55,5.17M329.91,409a11.34,11.34,0,0,0,8.91-3.74v3.19h8.09V391.33c0-4-1-7.2-3.19-9.4s-5.39-3.3-10-3.3A26,26,0,0,0,322.32,381l2.09,6.38a21.7,21.7,0,0,1,8.14-1.59c4.18,0,6.33,1.92,6.33,5.39v.49a21.1,21.1,0,0,0-7.21-1.21c-7,0-11.88,3-11.88,9.41V400c0,5.83,4.57,9,10.12,9m-55.22-.55H283v-25l10.72,16.28h.22l10.84-16.45v25.14h8.41v-38.5h-9.13l-10.12,16.28-10.12-16.28h-9.13Z" transform="translate(-87 -45.68)"/>
    <path class="cls-3" d="M579.33,342.44h8.36V331.55c0-7,3.41-10.4,9-10.4h.45v-8.74c-5-.22-7.71,2.42-9.41,6.49V313h-8.36Zm-21.94-6.55a7.83,7.83,0,0,1-7.76-8.14v-.11c0-4.34,2.86-8,7.65-8a7.83,7.83,0,0,1,7.75,8.14v.11c0,4.35-2.86,8-7.64,8m-.11,7.21c9.18,0,16-6.88,16-15.35v-.11c0-8.47-6.76-15.23-15.89-15.23s-16,6.87-16,15.34v.11c0,8.47,6.77,15.24,15.9,15.24m-33.5-.66h8.36V320.11h6.66v-6.82H532v-1.16c0-2.2,1.1-3.19,3-3.19a10.56,10.56,0,0,1,3.79.72v-6.93a18.35,18.35,0,0,0-5.94-.83q-4.45,0-6.76,2.31c-1.54,1.54-2.37,3.91-2.37,7.15v1.87h-3.46v6.88h3.46ZM478.9,325.39c.66-3.8,2.92-6.27,6.38-6.27s5.72,2.53,6.22,6.27Zm7.21,17.71a14.74,14.74,0,0,0,12-5.5l-4.78-4.24a9.66,9.66,0,0,1-7.15,3,6.85,6.85,0,0,1-7.21-5.78h20.52c.05-.77.11-1.54.11-2.2,0-8.36-4.51-16-14.36-16-8.58,0-14.57,6.93-14.57,15.34v.11c0,9,6.54,15.24,15.4,15.24m-26-.17a12.36,12.36,0,0,0,6.6-1.7v-6.71a8.48,8.48,0,0,1-4.12,1c-1.87,0-2.7-.93-2.7-2.86V320.11h6.93V313h-6.93v-7.54h-8.36V313H448v7.15h3.52v14c0,6.82,3.47,8.85,8.58,8.85m-34.43.06c4.24,0,6.71-2.26,8.64-4.73v4.18h8.36V313H434.3V329.4c0,4-2,6-5.23,6s-5.06-2-5.06-6V313h-8.36V332c0,6.77,3.69,10.95,10,10.95M403,342.93a12.36,12.36,0,0,0,6.6-1.7v-6.71a8.48,8.48,0,0,1-4.12,1c-1.87,0-2.7-.93-2.7-2.86V320.11h6.93V313h-6.93v-7.54h-8.36V313H390.9v7.15h3.52v14c0,6.82,3.47,8.85,8.58,8.85m-26.17-.49h8.35V313h-8.35Zm-.22-32.73h8.79v-7.42h-8.79Zm-13,33.22a12.36,12.36,0,0,0,6.6-1.7v-6.71a8.51,8.51,0,0,1-4.12,1c-1.88,0-2.7-.93-2.7-2.86V320.11h6.93V313h-6.93v-7.54H355V313h-3.52v7.15H355v14c0,6.82,3.46,8.85,8.58,8.85M336.9,343c6.37,0,11.27-3,11.27-9.52v-.11c0-5.39-4.78-7.37-8.91-8.74-3.19-1.1-6-1.87-6-3.52V321c0-1.16,1.05-2,3.09-2s5,1.05,8,2.75l3.19-5.77a20.36,20.36,0,0,0-11-3.41c-5.94,0-10.78,3.35-10.78,9.35V322c0,5.72,4.67,7.64,8.8,8.85,3.24,1,6.1,1.6,6.1,3.41v.11c0,1.32-1.09,2.2-3.51,2.2a16.68,16.68,0,0,1-9.3-3.52l-3.58,5.5A20.68,20.68,0,0,0,336.9,343m-44.61-.55h8.36V326c0-4,2-6,5.23-6s5.06,2,5.06,6v16.45h8.36V323.35c0-6.76-3.69-10.94-10-10.94-4.24,0-6.71,2.25-8.64,4.73V313h-8.36Zm-17.21,0h8.47v-38.5h-8.47Z" transform="translate(-87 -45.68)"/>
  </g>
</svg>
